<svg xmlns="http://www.w3.org/2000/svg" viewBox="0 0 221.057 33.107" overflow="visible" id="svg-1620060035_53746"><path d="M 28.965 16.761 C 27.39 15.363 26.973 13.544 26.973 11.968 C 26.973 10.863 27.31 8.946 28.853 7.516 C 30.009 6.444 31.536 5.794 33.93 5.794 C 34.927 5.794 35.521 5.858 36.26 5.956 C 36.871 6.038 37.385 6.184 37.867 6.232 C 38.044 6.248 38.108 6.329 38.108 6.428 C 38.108 6.558 38.06 6.753 38.028 7.322 C 37.996 7.858 38.012 8.752 37.98 9.076 C 37.963 9.32 37.932 9.449 37.787 9.449 C 37.658 9.449 37.626 9.32 37.626 9.093 C 37.603 8.535 37.38 8.003 37 7.598 C 36.47 7.029 35.217 6.59 33.738 6.59 C 32.34 6.59 31.424 6.948 30.717 7.598 C 29.544 8.687 29.238 10.23 29.238 11.806 C 29.238 15.673 32.147 17.59 34.3 17.59 C 35.73 17.59 36.597 17.428 37.241 16.679 C 37.514 16.372 37.723 15.902 37.787 15.608 C 37.835 15.348 37.868 15.283 37.996 15.283 C 38.108 15.283 38.14 15.397 38.14 15.527 C 38.14 15.722 37.948 17.135 37.787 17.689 C 37.706 17.964 37.642 18.045 37.369 18.159 C 36.727 18.419 35.505 18.533 34.477 18.533 C 32.276 18.532 30.428 18.044 28.966 16.762 M 40.166 13.157 C 40.166 10.832 41.685 7.829 45.718 7.829 C 49.066 7.829 51.15 9.801 51.15 12.913 C 51.15 16.026 48.999 18.487 45.584 18.487 C 41.726 18.487 40.166 15.564 40.166 13.157 M 49.268 13.416 C 49.268 10.372 47.534 8.481 45.329 8.481 C 43.783 8.481 42.021 9.352 42.021 12.736 C 42.021 15.564 43.568 17.807 46.149 17.807 C 47.09 17.807 49.268 17.346 49.268 13.417 M 55.966 14.353 C 55.966 16.094 55.966 17.032 56.248 17.277 C 56.477 17.481 56.826 17.576 57.876 17.576 C 58.588 17.576 59.112 17.563 59.448 17.196 C 59.61 17.019 59.771 16.638 59.798 16.379 C 59.811 16.258 59.838 16.176 59.946 16.176 C 60.04 16.176 60.053 16.243 60.053 16.407 C 60.053 16.556 59.96 17.576 59.852 17.97 C 59.771 18.269 59.704 18.337 59.004 18.337 C 57.068 18.337 56.182 18.255 55.093 18.255 C 54.783 18.255 53.936 18.296 53.398 18.296 C 53.224 18.296 53.129 18.255 53.129 18.159 C 53.129 18.092 53.183 18.051 53.345 18.051 C 53.546 18.051 53.707 18.024 53.828 17.996 C 54.097 17.942 54.165 17.643 54.219 17.249 C 54.285 16.678 54.285 15.604 54.285 14.352 L 54.285 11.959 C 54.285 9.894 54.285 9.512 54.259 9.079 C 54.232 8.616 54.124 8.398 53.681 8.303 C 53.535 8.273 53.386 8.26 53.237 8.263 C 53.089 8.263 53.009 8.236 53.009 8.141 C 53.009 8.046 53.102 8.019 53.304 8.019 C 53.936 8.019 54.783 8.06 55.146 8.06 C 55.469 8.06 56.45 8.019 56.975 8.019 C 57.163 8.019 57.257 8.046 57.257 8.141 C 57.257 8.236 57.176 8.263 57.015 8.263 C 56.839 8.263 56.664 8.277 56.491 8.303 C 56.127 8.372 56.02 8.604 55.993 9.079 C 55.966 9.512 55.966 9.894 55.966 11.959 L 55.966 14.354 Z M 62.647 11.962 C 62.647 9.896 62.647 9.514 62.62 9.08 C 62.593 8.619 62.486 8.4 62.042 8.305 C 61.934 8.278 61.706 8.266 61.517 8.266 C 61.37 8.266 61.289 8.239 61.289 8.143 C 61.289 8.049 61.383 8.022 61.585 8.022 C 62.297 8.022 63.145 8.061 63.547 8.061 C 63.871 8.061 64.717 8.022 65.202 8.022 C 65.403 8.022 65.497 8.049 65.497 8.143 C 65.497 8.239 65.417 8.266 65.282 8.266 C 65.134 8.266 65.054 8.279 64.893 8.305 C 64.529 8.373 64.422 8.605 64.395 9.081 C 64.368 9.514 64.368 9.896 64.368 11.962 L 64.368 13.866 C 64.368 15.836 64.758 16.666 65.417 17.21 C 66.022 17.713 66.641 17.767 67.097 17.767 C 67.689 17.767 68.415 17.578 68.952 17.033 C 69.692 16.285 69.733 15.062 69.733 13.662 L 69.733 11.963 C 69.733 9.896 69.733 9.515 69.706 9.081 C 69.679 8.619 69.571 8.401 69.127 8.306 C 69.02 8.279 68.791 8.266 68.644 8.266 C 68.496 8.266 68.415 8.239 68.415 8.143 C 68.415 8.049 68.509 8.022 68.697 8.022 C 69.383 8.022 70.231 8.061 70.243 8.061 C 70.405 8.061 71.252 8.022 71.777 8.022 C 71.964 8.022 72.059 8.049 72.059 8.143 C 72.059 8.239 71.978 8.266 71.816 8.266 C 71.685 8.266 71.555 8.28 71.426 8.306 C 71.064 8.373 70.956 8.605 70.929 9.081 C 70.902 9.515 70.902 9.896 70.902 11.963 L 70.902 13.417 C 70.902 14.927 70.754 16.53 69.625 17.509 C 68.671 18.338 67.702 18.488 66.828 18.488 C 66.116 18.488 64.825 18.447 63.844 17.551 C 63.158 16.925 62.647 15.919 62.647 13.947 Z M 75.284 8.075 C 75.324 7.843 75.404 7.72 75.512 7.72 C 75.62 7.72 75.701 7.788 75.875 8.142 L 79.545 15.81 L 83.203 8.047 C 83.296 7.829 83.377 7.72 83.498 7.72 C 83.619 7.72 83.699 7.856 83.74 8.142 L 84.964 16.543 C 85.085 17.4 85.219 17.794 85.623 17.917 C 85.892 18.005 86.174 18.051 86.457 18.052 C 86.577 18.052 86.672 18.066 86.672 18.147 C 86.672 18.255 86.51 18.297 86.323 18.297 C 85.986 18.297 84.13 18.255 83.593 18.215 C 83.284 18.188 83.203 18.147 83.203 18.065 C 83.203 17.998 83.257 17.956 83.35 17.917 C 83.431 17.888 83.471 17.713 83.418 17.331 L 82.611 11.349 L 82.557 11.349 L 79.626 17.522 C 79.317 18.162 79.25 18.284 79.129 18.284 C 79.008 18.284 78.873 18.011 78.658 17.605 C 78.336 16.979 77.274 14.899 77.112 14.518 C 76.991 14.233 76.184 12.52 75.714 11.501 L 75.66 11.501 L 74.961 16.911 C 74.935 17.123 74.921 17.337 74.92 17.551 C 74.92 17.808 75.095 17.931 75.324 17.985 C 75.566 18.039 75.754 18.053 75.888 18.053 C 75.996 18.053 76.09 18.08 76.09 18.147 C 76.09 18.27 75.969 18.297 75.768 18.297 C 75.202 18.297 74.598 18.256 74.356 18.256 C 74.1 18.256 73.455 18.297 73.025 18.297 C 72.89 18.297 72.782 18.27 72.782 18.147 C 72.782 18.08 72.863 18.053 72.998 18.053 C 73.106 18.053 73.199 18.053 73.401 18.012 C 73.777 17.93 73.885 17.401 73.952 16.938 L 75.292 8.075 Z M 89.628 11.962 C 89.628 9.896 89.628 9.514 89.601 9.08 C 89.574 8.618 89.466 8.4 89.022 8.305 C 88.915 8.278 88.687 8.264 88.498 8.264 C 88.35 8.264 88.27 8.238 88.27 8.144 C 88.27 8.048 88.364 8.021 88.566 8.021 C 89.279 8.021 90.126 8.061 90.395 8.061 C 91.054 8.061 91.577 8.021 92.035 8.021 C 94.468 8.021 94.898 9.339 94.898 10.06 C 94.898 11.175 94.267 11.84 93.527 12.438 C 94.631 12.819 95.974 13.784 95.974 15.374 C 95.974 16.83 94.859 18.338 92.385 18.338 C 92.062 18.338 90.839 18.257 90.435 18.257 C 90.126 18.257 89.28 18.297 88.741 18.297 C 88.567 18.297 88.473 18.257 88.473 18.161 C 88.473 18.093 88.526 18.052 88.687 18.052 C 88.889 18.052 89.05 18.025 89.171 17.997 C 89.44 17.943 89.508 17.644 89.561 17.25 C 89.628 16.68 89.628 15.606 89.628 14.354 L 89.628 11.963 Z M 91.241 12.193 C 91.241 12.302 91.281 12.329 91.334 12.342 C 91.455 12.369 91.659 12.383 91.967 12.383 C 92.411 12.383 92.706 12.328 92.935 12.125 C 93.285 11.838 93.486 11.35 93.486 10.684 C 93.486 9.773 92.963 8.576 91.806 8.576 C 91.617 8.576 91.496 8.576 91.363 8.604 C 91.268 8.631 91.241 8.685 91.241 8.835 L 91.241 12.193 Z M 93.016 13.28 C 92.733 13.076 92.424 12.981 91.9 12.953 C 91.658 12.941 91.523 12.941 91.322 12.941 C 91.268 12.941 91.241 12.968 91.241 13.035 L 91.241 16.258 C 91.241 17.155 91.281 17.386 91.711 17.562 C 92.074 17.711 92.384 17.724 92.692 17.724 C 93.298 17.724 94.319 17.399 94.319 15.985 C 94.32 15.143 94.037 14.001 93.016 13.28 M 98.96 11.962 C 98.96 9.896 98.96 9.514 98.934 9.08 C 98.907 8.619 98.772 8.387 98.477 8.319 C 98.319 8.28 98.156 8.262 97.994 8.264 C 97.859 8.264 97.778 8.237 97.778 8.128 C 97.778 8.047 97.886 8.02 98.101 8.02 C 98.612 8.02 99.459 8.06 99.848 8.06 C 100.185 8.06 100.978 8.02 101.49 8.02 C 101.664 8.02 101.771 8.047 101.771 8.128 C 101.771 8.237 101.69 8.264 101.556 8.264 C 101.421 8.266 101.286 8.279 101.152 8.305 C 100.79 8.372 100.682 8.604 100.655 9.08 C 100.628 9.513 100.628 9.895 100.628 11.961 L 100.628 14.354 C 100.628 15.672 100.628 16.747 100.682 17.331 C 100.722 17.698 100.817 17.943 101.22 17.998 C 101.409 18.025 101.704 18.052 101.906 18.052 C 102.053 18.052 102.122 18.092 102.122 18.161 C 102.122 18.256 102.014 18.297 101.866 18.297 C 100.979 18.297 100.131 18.256 99.768 18.256 C 99.459 18.256 98.613 18.297 98.075 18.297 C 97.9 18.297 97.807 18.256 97.807 18.161 C 97.807 18.093 97.86 18.052 98.021 18.052 C 98.222 18.052 98.384 18.025 98.504 17.998 C 98.773 17.943 98.854 17.712 98.894 17.318 C 98.961 16.747 98.961 15.673 98.961 14.355 L 98.961 11.962 Z M 107.14 14.748 C 107.072 14.748 107.045 14.775 107.018 14.856 L 106.292 16.801 C 106.158 17.141 106.09 17.468 106.09 17.631 C 106.09 17.875 106.211 18.052 106.628 18.052 L 106.83 18.052 C 106.992 18.052 107.03 18.079 107.03 18.161 C 107.03 18.269 106.95 18.297 106.803 18.297 C 106.373 18.297 105.795 18.256 105.378 18.256 C 105.23 18.256 104.491 18.297 103.791 18.297 C 103.617 18.297 103.536 18.269 103.536 18.161 C 103.536 18.079 103.589 18.052 103.698 18.052 C 103.819 18.052 104.006 18.038 104.114 18.025 C 104.733 17.943 104.988 17.481 105.257 16.802 L 108.631 8.264 C 108.793 7.87 108.874 7.721 109.008 7.721 C 109.128 7.721 109.209 7.843 109.343 8.155 C 109.667 8.904 111.818 14.449 112.678 16.516 C 113.188 17.74 113.58 17.93 113.861 17.997 C 114.062 18.038 114.264 18.052 114.424 18.052 C 114.533 18.052 114.6 18.066 114.6 18.161 C 114.6 18.27 114.478 18.297 113.981 18.297 C 113.498 18.297 112.516 18.297 111.44 18.27 C 111.198 18.256 111.037 18.256 111.037 18.161 C 111.037 18.079 111.091 18.053 111.225 18.039 C 111.319 18.012 111.414 17.89 111.346 17.726 L 110.269 14.845 C 110.242 14.777 110.202 14.75 110.135 14.75 L 107.138 14.75 L 107.138 14.749 Z M 109.883 14.069 C 109.949 14.069 109.964 14.028 109.949 13.987 L 108.74 10.629 C 108.726 10.575 108.712 10.508 108.672 10.508 C 108.631 10.508 108.605 10.575 108.591 10.629 L 107.355 13.975 C 107.342 14.029 107.355 14.069 107.409 14.069 L 109.882 14.069 Z M 121.546 10.733 C 121.546 8.263 121.546 7.809 121.514 7.289 C 121.48 6.736 121.353 6.477 120.824 6.362 C 120.695 6.329 120.422 6.314 120.196 6.314 C 120.02 6.314 119.923 6.281 119.923 6.169 C 119.923 6.054 120.037 6.022 120.276 6.022 C 121.128 6.022 122.141 6.071 122.622 6.071 C 123.009 6.071 124.02 6.022 124.599 6.022 C 124.841 6.022 124.953 6.055 124.953 6.169 C 124.953 6.282 124.855 6.314 124.695 6.314 C 124.518 6.314 124.422 6.329 124.23 6.362 C 123.796 6.444 123.667 6.719 123.634 7.289 C 123.603 7.809 123.603 8.264 123.603 10.734 L 123.603 13.008 C 123.603 15.363 124.069 16.355 124.856 17.005 C 125.58 17.607 126.32 17.671 126.866 17.671 C 127.573 17.671 128.44 17.444 129.083 16.795 C 129.967 15.901 130.015 14.439 130.015 12.764 L 130.015 10.734 C 130.015 8.263 130.015 7.809 129.983 7.289 C 129.95 6.736 129.822 6.476 129.292 6.363 C 129.164 6.33 128.89 6.314 128.713 6.314 C 128.537 6.314 128.44 6.281 128.44 6.169 C 128.44 6.054 128.553 6.022 128.777 6.022 C 129.596 6.022 130.608 6.071 130.624 6.071 C 130.818 6.071 131.83 6.022 132.456 6.022 C 132.681 6.022 132.794 6.055 132.794 6.169 C 132.794 6.282 132.698 6.314 132.504 6.314 C 132.328 6.314 132.231 6.33 132.038 6.363 C 131.604 6.445 131.477 6.72 131.444 7.289 C 131.412 7.809 131.412 8.264 131.412 10.734 L 131.412 12.473 C 131.412 14.275 131.235 16.193 129.885 17.363 C 128.746 18.354 127.587 18.533 126.544 18.533 C 125.691 18.533 124.15 18.483 122.977 17.411 C 122.156 16.664 121.546 15.462 121.546 13.105 L 121.546 10.734 Z M 136.072 16.448 C 136.099 17.508 136.273 17.861 136.542 17.956 C 136.771 18.038 137.026 18.052 137.242 18.052 C 137.39 18.052 137.469 18.079 137.469 18.161 C 137.469 18.269 137.351 18.297 137.16 18.297 C 136.288 18.297 135.748 18.257 135.493 18.257 C 135.373 18.257 134.74 18.297 134.042 18.297 C 133.867 18.297 133.745 18.284 133.745 18.161 C 133.745 18.079 133.826 18.052 133.96 18.052 C 134.135 18.052 134.378 18.038 134.567 17.984 C 134.916 17.875 134.97 17.481 134.982 16.298 L 135.104 8.251 C 135.104 7.978 135.144 7.788 135.278 7.788 C 135.426 7.788 135.547 7.965 135.775 8.211 C 135.937 8.387 137.98 10.602 139.944 12.573 C 140.858 13.499 142.672 15.456 142.901 15.673 L 142.968 15.673 L 142.834 9.569 C 142.821 8.74 142.699 8.482 142.378 8.346 C 142.177 8.264 141.853 8.264 141.664 8.264 C 141.502 8.264 141.448 8.224 141.448 8.142 C 141.448 8.033 141.596 8.02 141.798 8.02 C 142.498 8.02 143.143 8.061 143.426 8.061 C 143.573 8.061 144.084 8.02 144.743 8.02 C 144.916 8.02 145.052 8.034 145.052 8.142 C 145.052 8.224 144.971 8.264 144.809 8.264 C 144.674 8.264 144.567 8.264 144.405 8.305 C 144.029 8.414 143.923 8.699 143.909 9.46 L 143.762 18.038 C 143.762 18.338 143.707 18.46 143.587 18.46 C 143.439 18.46 143.277 18.31 143.13 18.161 C 142.284 17.344 140.562 15.564 139.165 14.164 C 137.698 12.696 136.207 10.996 135.963 10.737 L 135.924 10.737 Z M 148.49 11.962 C 148.49 9.896 148.49 9.514 148.463 9.08 C 148.436 8.619 148.301 8.387 148.006 8.319 C 147.848 8.28 147.686 8.262 147.523 8.264 C 147.388 8.264 147.307 8.237 147.307 8.128 C 147.307 8.047 147.415 8.02 147.631 8.02 C 148.14 8.02 148.989 8.06 149.38 8.06 C 149.714 8.06 150.509 8.02 151.02 8.02 C 151.194 8.02 151.302 8.047 151.302 8.128 C 151.302 8.237 151.221 8.264 151.087 8.264 C 150.952 8.264 150.844 8.278 150.683 8.305 C 150.32 8.372 150.213 8.604 150.186 9.08 C 150.159 9.513 150.159 9.895 150.159 11.961 L 150.159 14.354 C 150.159 15.672 150.159 16.747 150.213 17.331 C 150.252 17.698 150.347 17.943 150.751 17.998 C 150.939 18.025 151.234 18.052 151.436 18.052 C 151.583 18.052 151.651 18.092 151.651 18.161 C 151.651 18.256 151.544 18.297 151.396 18.297 C 150.509 18.297 149.663 18.256 149.3 18.256 C 148.989 18.256 148.143 18.297 147.605 18.297 C 147.431 18.297 147.335 18.256 147.335 18.161 C 147.335 18.093 147.39 18.052 147.551 18.052 C 147.752 18.052 147.914 18.025 148.035 17.998 C 148.304 17.943 148.385 17.712 148.425 17.318 C 148.492 16.747 148.492 15.673 148.492 14.355 L 148.492 11.962 Z M 154.4 9.352 C 154.091 8.604 153.864 8.455 153.379 8.319 C 153.177 8.264 152.961 8.264 152.854 8.264 C 152.733 8.264 152.692 8.224 152.692 8.142 C 152.692 8.033 152.839 8.02 153.043 8.02 C 153.756 8.02 154.521 8.061 154.992 8.061 C 155.329 8.061 155.973 8.019 156.644 8.019 C 156.806 8.019 156.955 8.047 156.955 8.142 C 156.955 8.237 156.874 8.264 156.753 8.264 C 156.538 8.264 156.335 8.277 156.228 8.359 C 156.135 8.427 156.094 8.522 156.094 8.644 C 156.094 8.821 156.215 9.202 156.403 9.691 L 158.716 15.863 L 158.769 15.863 C 159.347 14.367 161.095 9.99 161.419 9.093 C 161.485 8.917 161.537 8.713 161.537 8.59 C 161.537 8.482 161.485 8.373 161.365 8.332 C 161.203 8.278 161.001 8.264 160.827 8.264 C 160.705 8.264 160.598 8.251 160.598 8.155 C 160.598 8.046 160.719 8.019 160.974 8.019 C 161.646 8.019 162.209 8.06 162.385 8.06 C 162.616 8.06 163.247 8.019 163.649 8.019 C 163.824 8.019 163.931 8.046 163.931 8.141 C 163.931 8.237 163.851 8.264 163.717 8.264 C 163.581 8.264 163.299 8.264 163.057 8.427 C 162.883 8.549 162.68 8.78 162.316 9.65 C 161.792 10.928 161.429 11.661 160.703 13.334 C 159.843 15.319 159.21 16.801 158.915 17.481 C 158.566 18.269 158.486 18.487 158.298 18.487 C 158.124 18.487 158.042 18.297 157.787 17.658 Z M 166.064 11.962 C 166.064 9.896 166.064 9.514 166.037 9.08 C 166.01 8.619 165.902 8.4 165.459 8.305 C 165.352 8.278 165.123 8.266 164.933 8.266 C 164.787 8.266 164.705 8.239 164.705 8.143 C 164.705 8.049 164.8 8.022 165.002 8.022 C 165.715 8.022 166.561 8.061 166.937 8.061 C 167.367 8.061 170.043 8.061 170.299 8.049 C 170.554 8.021 170.77 7.993 170.878 7.967 C 170.945 7.953 171.025 7.912 171.092 7.912 C 171.16 7.912 171.174 7.966 171.174 8.034 C 171.174 8.129 171.107 8.292 171.067 8.917 C 171.053 9.053 171.026 9.652 170.999 9.814 C 170.987 9.882 170.96 9.964 170.865 9.964 C 170.771 9.964 170.744 9.896 170.744 9.774 C 170.744 9.68 170.732 9.447 170.663 9.284 C 170.57 9.04 170.435 8.876 169.763 8.795 C 169.534 8.768 168.122 8.741 167.854 8.741 C 167.786 8.741 167.76 8.782 167.76 8.876 L 167.76 12.316 C 167.76 12.411 167.773 12.466 167.854 12.466 C 168.149 12.466 169.696 12.466 170.004 12.438 C 170.327 12.411 170.529 12.37 170.65 12.235 C 170.744 12.126 170.798 12.058 170.866 12.058 C 170.919 12.058 170.959 12.086 170.959 12.167 C 170.959 12.249 170.892 12.466 170.852 13.158 C 170.825 13.462 170.808 13.766 170.798 14.07 C 170.798 14.178 170.798 14.328 170.678 14.328 C 170.583 14.328 170.556 14.274 170.556 14.205 C 170.544 14.07 170.544 13.893 170.502 13.717 C 170.435 13.445 170.248 13.242 169.749 13.186 C 169.494 13.158 168.163 13.146 167.84 13.146 C 167.774 13.146 167.76 13.201 167.76 13.282 L 167.76 14.356 C 167.76 14.818 167.747 16.068 167.76 16.463 C 167.786 17.401 168.003 17.605 169.373 17.605 C 169.724 17.605 170.289 17.605 170.637 17.441 C 170.988 17.279 171.148 16.994 171.243 16.435 C 171.269 16.287 171.295 16.232 171.39 16.232 C 171.497 16.232 171.497 16.341 171.497 16.476 C 171.497 16.79 171.39 17.714 171.324 17.987 C 171.23 18.34 171.107 18.34 170.598 18.34 C 168.567 18.34 167.668 18.258 166.872 18.258 C 166.563 18.258 165.716 18.299 165.178 18.299 C 165.003 18.299 164.909 18.258 164.909 18.163 C 164.909 18.095 164.964 18.054 165.124 18.054 C 165.326 18.054 165.488 18.027 165.608 18 C 165.877 17.946 165.944 17.646 165.998 17.252 C 166.064 16.683 166.064 15.607 166.064 14.357 L 166.064 11.963 Z M 175.297 11.962 C 175.297 9.896 175.297 9.514 175.27 9.08 C 175.243 8.618 175.136 8.401 174.692 8.305 C 174.584 8.278 174.355 8.266 174.167 8.266 C 174.019 8.266 173.938 8.239 173.938 8.143 C 173.938 8.048 174.033 8.021 174.235 8.021 C 174.948 8.021 175.795 8.062 176.077 8.062 C 176.533 8.062 177.555 8.021 177.972 8.021 C 178.82 8.021 179.721 8.103 180.448 8.606 C 180.825 8.864 181.361 9.558 181.361 10.469 C 181.361 11.475 180.944 12.399 179.586 13.514 C 180.783 15.036 181.709 16.246 182.504 17.089 C 183.258 17.878 183.809 17.972 184.01 18.014 C 184.158 18.041 184.279 18.054 184.386 18.054 C 184.494 18.054 184.548 18.095 184.548 18.163 C 184.548 18.272 184.455 18.299 184.294 18.299 L 183.016 18.299 C 182.263 18.299 181.927 18.231 181.577 18.041 C 180.998 17.728 180.489 17.089 179.735 16.043 C 179.199 15.294 178.579 14.37 178.404 14.166 C 178.336 14.084 178.256 14.071 178.162 14.071 L 176.992 14.044 C 176.925 14.044 176.883 14.071 176.883 14.153 L 176.883 14.343 C 176.883 15.607 176.883 16.682 176.95 17.252 C 176.991 17.646 177.071 17.946 177.475 18 C 177.676 18.027 177.972 18.055 178.136 18.055 C 178.241 18.055 178.296 18.095 178.296 18.164 C 178.296 18.258 178.202 18.3 178.028 18.3 C 177.247 18.3 176.252 18.259 176.05 18.259 C 175.795 18.259 174.947 18.3 174.409 18.3 C 174.235 18.3 174.141 18.259 174.141 18.164 C 174.141 18.096 174.194 18.055 174.355 18.055 C 174.557 18.055 174.719 18.027 174.84 18 C 175.108 17.945 175.176 17.647 175.229 17.252 C 175.296 16.682 175.296 15.607 175.296 14.357 L 175.296 11.962 Z M 176.883 13.035 C 176.883 13.185 176.911 13.24 177.005 13.281 C 177.286 13.376 177.69 13.417 178.028 13.417 C 178.564 13.417 178.74 13.362 178.981 13.186 C 179.384 12.886 179.773 12.261 179.773 11.146 C 179.773 9.216 178.51 8.659 177.717 8.659 C 177.381 8.659 177.137 8.672 177.003 8.714 C 176.909 8.741 176.882 8.796 176.882 8.904 L 176.882 13.035 Z M 185.527 18.135 C 185.311 18.038 185.271 17.971 185.271 17.672 C 185.271 16.923 185.325 16.108 185.338 15.891 C 185.351 15.686 185.391 15.538 185.5 15.538 C 185.62 15.538 185.635 15.659 185.635 15.769 C 185.635 15.945 185.689 16.23 185.755 16.462 C 186.052 17.469 186.844 17.835 187.677 17.835 C 188.887 17.835 189.48 17.006 189.48 16.285 C 189.48 15.619 189.278 14.981 188.162 14.111 L 187.543 13.622 C 186.066 12.452 185.555 11.501 185.555 10.399 C 185.555 8.904 186.791 7.83 188.66 7.83 C 189.533 7.83 190.099 7.966 190.449 8.061 C 190.569 8.089 190.637 8.129 190.637 8.224 C 190.637 8.401 190.582 8.795 190.582 9.855 C 190.582 10.155 190.543 10.264 190.435 10.264 C 190.342 10.264 190.301 10.182 190.301 10.019 C 190.301 9.896 190.234 9.475 189.95 9.121 C 189.748 8.864 189.359 8.455 188.484 8.455 C 187.488 8.455 186.884 9.04 186.884 9.855 C 186.884 10.481 187.195 10.956 188.31 11.813 L 188.687 12.099 C 190.301 13.363 190.891 14.273 190.891 15.565 C 190.891 16.354 190.595 17.291 189.627 17.931 C 188.956 18.364 188.203 18.488 187.489 18.488 C 186.71 18.488 186.103 18.392 185.527 18.135 M 194.691 11.962 C 194.691 9.896 194.691 9.514 194.663 9.08 C 194.636 8.619 194.502 8.387 194.207 8.319 C 194.049 8.28 193.886 8.262 193.724 8.264 C 193.589 8.264 193.509 8.237 193.509 8.128 C 193.509 8.047 193.616 8.02 193.832 8.02 C 194.343 8.02 195.191 8.06 195.579 8.06 C 195.916 8.06 196.709 8.02 197.22 8.02 C 197.395 8.02 197.502 8.047 197.502 8.128 C 197.502 8.237 197.421 8.264 197.287 8.264 C 197.151 8.266 197.017 8.279 196.884 8.305 C 196.52 8.372 196.413 8.604 196.385 9.08 C 196.358 9.513 196.358 9.895 196.358 11.961 L 196.358 14.354 C 196.358 15.672 196.358 16.747 196.413 17.331 C 196.452 17.698 196.547 17.943 196.949 17.998 C 197.138 18.025 197.434 18.052 197.636 18.052 C 197.783 18.052 197.851 18.092 197.851 18.161 C 197.851 18.256 197.744 18.297 197.596 18.297 C 196.708 18.297 195.861 18.256 195.498 18.256 C 195.19 18.256 194.342 18.297 193.805 18.297 C 193.63 18.297 193.536 18.256 193.536 18.161 C 193.536 18.093 193.589 18.052 193.751 18.052 C 193.953 18.052 194.113 18.025 194.234 17.998 C 194.504 17.943 194.584 17.712 194.624 17.318 C 194.691 16.747 194.691 15.673 194.691 14.355 Z M 203.873 8.781 L 201.87 8.835 C 201.091 8.862 200.767 8.93 200.566 9.229 C 200.431 9.433 200.364 9.596 200.338 9.705 C 200.311 9.814 200.27 9.869 200.19 9.869 C 200.096 9.869 200.069 9.801 200.069 9.651 C 200.069 9.433 200.325 8.196 200.351 8.088 C 200.392 7.911 200.432 7.829 200.513 7.829 C 200.62 7.829 200.755 7.966 201.092 7.993 C 201.481 8.034 201.992 8.061 202.436 8.061 L 207.76 8.061 C 208.62 8.061 208.942 7.925 209.05 7.925 C 209.144 7.925 209.157 8.007 209.157 8.211 C 209.157 8.496 209.118 9.434 209.118 9.788 C 209.104 9.923 209.077 10.005 208.997 10.005 C 208.89 10.005 208.863 9.937 208.849 9.733 L 208.836 9.584 C 208.808 9.23 208.446 8.85 207.249 8.823 L 205.555 8.782 L 205.555 14.355 C 205.555 15.606 205.555 16.681 205.62 17.265 C 205.661 17.646 205.742 17.944 206.145 17.999 C 206.335 18.026 206.629 18.054 206.832 18.054 C 206.979 18.054 207.048 18.094 207.048 18.162 C 207.048 18.257 206.94 18.299 206.792 18.299 C 205.904 18.299 205.058 18.258 204.681 18.258 C 204.372 18.258 203.525 18.299 202.987 18.299 C 202.812 18.299 202.717 18.258 202.717 18.162 C 202.717 18.095 202.772 18.054 202.933 18.054 C 203.134 18.054 203.296 18.026 203.416 17.999 C 203.686 17.944 203.766 17.646 203.805 17.252 C 203.873 16.681 203.873 15.606 203.873 14.355 L 203.873 8.781 Z M 215.02 14.775 C 215.02 14.041 214.885 13.743 214.711 13.348 C 214.617 13.129 212.816 10.14 212.345 9.434 C 212.009 8.929 211.672 8.59 211.417 8.44 C 211.243 8.346 211.014 8.264 210.852 8.264 C 210.745 8.264 210.651 8.237 210.651 8.142 C 210.651 8.06 210.745 8.02 210.907 8.02 C 211.149 8.02 212.157 8.06 212.6 8.06 C 212.883 8.06 213.434 8.02 214.041 8.02 C 214.174 8.02 214.243 8.06 214.243 8.142 C 214.243 8.224 214.147 8.237 213.945 8.291 C 213.832 8.317 213.753 8.42 213.756 8.537 C 213.756 8.645 213.822 8.808 213.917 8.997 C 214.107 9.406 215.988 12.682 216.204 13.063 C 216.338 12.735 218.032 9.746 218.22 9.325 C 218.355 9.025 218.408 8.793 218.408 8.617 C 218.408 8.481 218.355 8.332 218.126 8.277 C 218.006 8.25 217.884 8.223 217.884 8.141 C 217.884 8.047 217.951 8.019 218.113 8.019 C 218.556 8.019 218.986 8.059 219.374 8.059 C 219.672 8.059 220.559 8.019 220.815 8.019 C 220.962 8.019 221.057 8.046 221.057 8.128 C 221.057 8.223 220.95 8.264 220.802 8.264 C 220.596 8.275 220.394 8.33 220.21 8.426 C 219.929 8.563 219.781 8.726 219.485 9.095 C 219.041 9.637 217.159 12.832 216.918 13.416 C 216.716 13.905 216.716 14.326 216.716 14.775 L 216.716 15.891 C 216.716 16.108 216.716 16.679 216.755 17.25 C 216.782 17.644 216.903 17.943 217.307 17.997 C 217.495 18.025 217.79 18.052 217.979 18.052 C 218.126 18.052 218.194 18.092 218.194 18.161 C 218.194 18.256 218.087 18.297 217.913 18.297 C 217.066 18.297 216.218 18.257 215.855 18.257 C 215.519 18.257 214.671 18.297 214.174 18.297 C 213.987 18.297 213.878 18.269 213.878 18.161 C 213.878 18.093 213.945 18.052 214.094 18.052 C 214.282 18.052 214.444 18.025 214.564 17.997 C 214.834 17.943 214.954 17.644 214.981 17.25 C 215.021 16.679 215.021 16.108 215.021 15.891 Z M 28.783 28.822 C 28.783 27.464 28.783 27.215 28.764 26.929 C 28.746 26.624 28.658 26.473 28.465 26.429 C 28.361 26.403 28.254 26.391 28.147 26.392 C 28.059 26.392 28.006 26.375 28.006 26.303 C 28.006 26.25 28.076 26.232 28.218 26.232 C 28.553 26.232 29.109 26.259 29.365 26.259 C 29.586 26.259 30.107 26.232 30.443 26.232 C 30.557 26.232 30.628 26.25 30.628 26.303 C 30.628 26.374 30.575 26.392 30.487 26.392 C 30.398 26.392 30.328 26.402 30.222 26.419 C 29.983 26.463 29.913 26.617 29.895 26.929 C 29.877 27.214 29.877 27.464 29.877 28.822 L 29.877 30.393 C 29.877 31.258 29.877 31.964 29.913 32.348 C 29.939 32.59 30.001 32.75 30.265 32.785 C 30.39 32.803 30.583 32.821 30.716 32.821 C 30.813 32.821 30.857 32.848 30.857 32.894 C 30.857 32.955 30.787 32.982 30.689 32.982 C 30.107 32.982 29.55 32.955 29.312 32.955 C 29.109 32.955 28.553 32.982 28.2 32.982 C 28.085 32.982 28.023 32.955 28.023 32.894 C 28.023 32.848 28.059 32.821 28.165 32.821 C 28.297 32.821 28.403 32.804 28.483 32.785 C 28.658 32.749 28.711 32.598 28.738 32.339 C 28.782 31.964 28.782 31.258 28.782 30.393 L 28.782 28.822 Z M 33.718 31.767 C 33.735 32.463 33.851 32.696 34.027 32.758 C 34.177 32.811 34.345 32.821 34.486 32.821 C 34.583 32.821 34.636 32.838 34.636 32.892 C 34.636 32.963 34.556 32.982 34.433 32.982 C 33.859 32.982 33.506 32.955 33.338 32.955 C 33.258 32.955 32.844 32.982 32.384 32.982 C 32.269 32.982 32.191 32.972 32.191 32.892 C 32.191 32.838 32.243 32.821 32.331 32.821 C 32.446 32.821 32.606 32.811 32.729 32.776 C 32.959 32.705 32.994 32.446 33.003 31.669 L 33.082 26.385 C 33.082 26.206 33.109 26.081 33.197 26.081 C 33.294 26.081 33.374 26.197 33.523 26.358 C 33.629 26.474 34.972 27.928 36.261 29.224 C 36.861 29.83 38.053 31.116 38.203 31.259 L 38.247 31.259 L 38.16 27.25 C 38.15 26.707 38.071 26.537 37.859 26.448 C 37.726 26.394 37.514 26.394 37.391 26.394 C 37.285 26.394 37.249 26.368 37.249 26.315 C 37.249 26.243 37.347 26.234 37.48 26.234 C 37.938 26.234 38.362 26.261 38.547 26.261 C 38.645 26.261 38.98 26.234 39.413 26.234 C 39.527 26.234 39.616 26.243 39.616 26.315 C 39.616 26.368 39.563 26.394 39.457 26.394 C 39.368 26.394 39.298 26.394 39.192 26.421 C 38.945 26.493 38.874 26.68 38.865 27.181 L 38.768 32.813 C 38.768 33.01 38.733 33.09 38.653 33.09 C 38.556 33.09 38.451 32.992 38.354 32.892 C 37.797 32.357 36.667 31.187 35.748 30.268 C 34.786 29.304 33.806 28.187 33.647 28.019 L 33.621 28.019 L 33.718 31.767 Z M 46.308 26.733 L 44.993 26.769 C 44.482 26.786 44.27 26.832 44.136 27.028 C 44.049 27.161 44.003 27.268 43.987 27.339 C 43.97 27.41 43.942 27.447 43.889 27.447 C 43.827 27.447 43.809 27.403 43.809 27.304 C 43.809 27.161 43.977 26.348 43.995 26.276 C 44.022 26.16 44.048 26.107 44.101 26.107 C 44.172 26.107 44.26 26.196 44.481 26.214 C 44.737 26.24 45.072 26.258 45.364 26.258 L 48.861 26.258 C 49.143 26.258 49.337 26.23 49.47 26.214 C 49.602 26.186 49.672 26.17 49.708 26.17 C 49.77 26.17 49.778 26.223 49.778 26.356 C 49.778 26.545 49.752 27.16 49.752 27.393 C 49.743 27.483 49.726 27.538 49.672 27.538 C 49.602 27.538 49.585 27.492 49.575 27.357 L 49.566 27.261 C 49.549 27.029 49.311 26.777 48.525 26.76 L 47.412 26.734 L 47.412 30.395 C 47.412 31.216 47.412 31.92 47.456 32.304 C 47.483 32.554 47.536 32.75 47.801 32.787 C 47.924 32.805 48.119 32.824 48.251 32.824 C 48.348 32.824 48.392 32.85 48.392 32.895 C 48.392 32.957 48.321 32.984 48.225 32.984 C 47.642 32.984 47.086 32.957 46.838 32.957 C 46.635 32.957 46.079 32.984 45.725 32.984 C 45.611 32.984 45.549 32.957 45.549 32.895 C 45.549 32.85 45.584 32.824 45.69 32.824 C 45.823 32.824 45.929 32.807 46.008 32.788 C 46.185 32.751 46.238 32.554 46.264 32.296 C 46.308 31.92 46.308 31.215 46.308 30.394 L 46.308 26.732 Z M 56.382 29.071 C 56.409 29.071 56.435 29.054 56.435 29.008 L 56.435 28.82 C 56.435 27.463 56.435 27.213 56.417 26.929 C 56.4 26.624 56.329 26.482 56.038 26.418 C 55.924 26.398 55.809 26.389 55.694 26.392 C 55.596 26.392 55.544 26.375 55.544 26.312 C 55.544 26.249 55.605 26.23 55.728 26.23 C 56.205 26.23 56.761 26.258 57 26.258 C 57.212 26.258 57.768 26.23 58.112 26.23 C 58.236 26.23 58.298 26.249 58.298 26.312 C 58.298 26.375 58.245 26.391 58.139 26.391 C 58.069 26.391 57.99 26.401 57.884 26.419 C 57.645 26.463 57.574 26.616 57.556 26.929 C 57.538 27.213 57.538 27.463 57.538 28.82 L 57.538 30.392 C 57.538 31.213 57.538 31.918 57.583 32.302 C 57.609 32.552 57.662 32.749 57.927 32.785 C 58.051 32.803 58.245 32.821 58.377 32.821 C 58.475 32.821 58.519 32.846 58.519 32.892 C 58.519 32.955 58.448 32.982 58.342 32.982 C 57.769 32.982 57.212 32.955 56.965 32.955 C 56.761 32.955 56.205 32.982 55.861 32.982 C 55.737 32.982 55.676 32.955 55.676 32.892 C 55.676 32.847 55.711 32.821 55.817 32.821 C 55.949 32.821 56.055 32.804 56.135 32.785 C 56.311 32.749 56.356 32.552 56.391 32.293 C 56.435 31.918 56.435 31.213 56.435 30.392 L 56.435 29.606 C 56.435 29.57 56.409 29.553 56.382 29.553 L 53.009 29.553 C 52.983 29.553 52.956 29.562 52.956 29.606 L 52.956 30.392 C 52.956 31.213 52.956 31.918 53 32.302 C 53.027 32.552 53.08 32.749 53.345 32.785 C 53.469 32.803 53.663 32.821 53.795 32.821 C 53.892 32.821 53.936 32.846 53.936 32.892 C 53.936 32.955 53.866 32.982 53.76 32.982 C 53.186 32.982 52.63 32.955 52.382 32.955 C 52.179 32.955 51.623 32.982 51.27 32.982 C 51.155 32.982 51.093 32.955 51.093 32.892 C 51.093 32.847 51.128 32.821 51.234 32.821 C 51.367 32.821 51.473 32.804 51.552 32.785 C 51.729 32.749 51.773 32.552 51.809 32.293 C 51.853 31.918 51.853 31.213 51.853 30.392 L 51.853 28.821 C 51.853 27.463 51.853 27.214 51.835 26.929 C 51.817 26.624 51.746 26.482 51.455 26.418 C 51.341 26.398 51.226 26.389 51.111 26.392 C 51.014 26.392 50.961 26.375 50.961 26.312 C 50.961 26.249 51.024 26.23 51.146 26.23 C 51.623 26.23 52.179 26.258 52.418 26.258 C 52.63 26.258 53.186 26.23 53.53 26.23 C 53.654 26.23 53.716 26.249 53.716 26.312 C 53.716 26.375 53.663 26.391 53.557 26.391 C 53.486 26.391 53.407 26.401 53.301 26.419 C 53.062 26.463 52.991 26.616 52.974 26.929 C 52.956 27.213 52.956 27.463 52.956 28.82 L 52.956 29.008 C 52.956 29.052 52.983 29.071 53.009 29.071 Z M 60.883 28.822 C 60.883 27.464 60.883 27.215 60.865 26.929 C 60.847 26.626 60.777 26.483 60.485 26.419 C 60.371 26.399 60.256 26.39 60.141 26.392 C 60.044 26.392 59.991 26.376 59.991 26.312 C 59.991 26.25 60.054 26.232 60.185 26.232 C 60.653 26.232 61.209 26.259 61.457 26.259 C 61.739 26.259 63.497 26.259 63.664 26.25 C 63.832 26.232 63.973 26.213 64.044 26.196 C 64.088 26.187 64.141 26.16 64.185 26.16 C 64.229 26.16 64.238 26.196 64.238 26.24 C 64.238 26.303 64.194 26.41 64.167 26.82 C 64.158 26.91 64.141 27.304 64.123 27.41 C 64.115 27.455 64.096 27.509 64.035 27.509 C 63.973 27.509 63.956 27.463 63.956 27.383 C 63.956 27.274 63.938 27.165 63.903 27.062 C 63.841 26.901 63.753 26.794 63.311 26.741 C 63.161 26.723 62.234 26.704 62.058 26.704 C 62.013 26.704 61.996 26.731 61.996 26.794 L 61.996 29.053 C 61.996 29.116 62.004 29.15 62.058 29.15 C 62.252 29.15 63.267 29.15 63.47 29.133 C 63.682 29.116 63.814 29.089 63.894 28.999 C 63.956 28.929 63.99 28.882 64.035 28.882 C 64.07 28.882 64.097 28.9 64.097 28.954 C 64.097 29.007 64.053 29.15 64.026 29.605 C 64.008 29.783 63.99 30.141 63.99 30.202 C 63.99 30.273 63.99 30.372 63.911 30.372 C 63.85 30.372 63.832 30.337 63.832 30.292 C 63.823 30.202 63.823 30.087 63.796 29.971 C 63.752 29.792 63.629 29.658 63.302 29.622 C 63.134 29.605 62.26 29.595 62.048 29.595 C 62.004 29.595 61.996 29.633 61.996 29.685 L 61.996 30.391 C 61.996 30.694 61.987 31.515 61.996 31.773 C 62.013 32.391 62.155 32.522 63.055 32.522 C 63.285 32.522 63.655 32.522 63.885 32.415 C 64.115 32.309 64.22 32.121 64.282 31.755 C 64.299 31.657 64.317 31.621 64.379 31.621 C 64.45 31.621 64.45 31.692 64.45 31.782 C 64.45 31.987 64.379 32.595 64.335 32.772 C 64.273 33.004 64.194 33.004 63.858 33.004 C 62.525 33.004 61.933 32.95 61.413 32.95 C 61.209 32.95 60.653 32.977 60.3 32.977 C 60.185 32.977 60.124 32.95 60.124 32.889 C 60.124 32.843 60.158 32.816 60.265 32.816 C 60.397 32.816 60.503 32.799 60.583 32.78 C 60.759 32.744 60.803 32.549 60.839 32.289 C 60.883 31.915 60.883 31.209 60.883 30.388 Z M 70.147 32.133 C 69.281 31.364 69.051 30.365 69.051 29.499 C 69.051 28.893 69.237 27.84 70.084 27.053 C 70.72 26.463 71.559 26.107 72.875 26.107 C 73.422 26.107 73.749 26.143 74.155 26.197 C 74.491 26.241 74.774 26.321 75.038 26.348 C 75.135 26.357 75.171 26.402 75.171 26.457 C 75.171 26.527 75.144 26.634 75.127 26.946 C 75.109 27.241 75.118 27.732 75.1 27.911 C 75.091 28.045 75.073 28.116 74.994 28.116 C 74.923 28.116 74.906 28.045 74.906 27.918 C 74.893 27.611 74.771 27.319 74.561 27.096 C 74.27 26.785 73.581 26.543 72.769 26.543 C 72.001 26.543 71.498 26.74 71.109 27.096 C 70.465 27.694 70.297 28.543 70.297 29.41 C 70.297 31.534 71.895 32.587 73.078 32.587 C 73.864 32.587 74.34 32.496 74.694 32.087 C 74.844 31.917 74.959 31.658 74.994 31.497 C 75.02 31.354 75.038 31.318 75.109 31.318 C 75.171 31.318 75.188 31.381 75.188 31.453 C 75.188 31.56 75.082 32.336 74.994 32.641 C 74.95 32.792 74.914 32.838 74.765 32.899 C 74.411 33.042 73.74 33.105 73.175 33.105 C 71.966 33.107 70.95 32.84 70.147 32.133 M 77.528 28.822 C 77.528 27.464 77.528 27.215 77.51 26.929 C 77.493 26.626 77.404 26.473 77.21 26.429 C 77.106 26.403 76.999 26.39 76.891 26.392 C 76.804 26.392 76.75 26.376 76.75 26.303 C 76.75 26.25 76.821 26.232 76.962 26.232 C 77.298 26.232 77.854 26.259 78.111 26.259 C 78.331 26.259 78.852 26.232 79.187 26.232 C 79.303 26.232 79.373 26.25 79.373 26.303 C 79.373 26.374 79.321 26.392 79.232 26.392 C 79.144 26.392 79.073 26.402 78.967 26.419 C 78.728 26.463 78.658 26.617 78.64 26.929 C 78.622 27.214 78.622 27.464 78.622 28.822 L 78.622 30.393 C 78.622 31.258 78.622 31.964 78.658 32.348 C 78.684 32.59 78.746 32.75 79.011 32.785 C 79.134 32.803 79.329 32.821 79.461 32.821 C 79.558 32.821 79.602 32.848 79.602 32.894 C 79.602 32.955 79.533 32.982 79.435 32.982 C 78.852 32.982 78.296 32.955 78.057 32.955 C 77.854 32.955 77.298 32.982 76.945 32.982 C 76.83 32.982 76.768 32.955 76.768 32.894 C 76.768 32.848 76.803 32.821 76.909 32.821 C 77.041 32.821 77.148 32.804 77.227 32.785 C 77.404 32.749 77.457 32.598 77.483 32.339 C 77.528 31.964 77.528 31.258 77.528 30.393 Z M 83.145 26.733 L 81.829 26.769 C 81.318 26.786 81.106 26.832 80.973 27.028 C 80.906 27.123 80.855 27.228 80.823 27.339 C 80.806 27.41 80.779 27.447 80.726 27.447 C 80.663 27.447 80.647 27.403 80.647 27.304 C 80.647 27.161 80.814 26.348 80.832 26.276 C 80.859 26.16 80.885 26.107 80.938 26.107 C 81.009 26.107 81.097 26.196 81.318 26.214 C 81.574 26.24 81.908 26.258 82.201 26.258 L 85.696 26.258 C 85.979 26.258 86.174 26.23 86.306 26.214 C 86.439 26.186 86.509 26.17 86.545 26.17 C 86.607 26.17 86.615 26.223 86.615 26.356 C 86.615 26.545 86.588 27.16 86.588 27.393 C 86.579 27.483 86.562 27.538 86.509 27.538 C 86.439 27.538 86.42 27.492 86.412 27.357 L 86.403 27.261 C 86.386 27.029 86.147 26.777 85.361 26.76 L 84.248 26.734 L 84.248 30.395 C 84.248 31.216 84.248 31.92 84.292 32.304 C 84.319 32.554 84.372 32.75 84.637 32.787 C 84.761 32.805 84.955 32.824 85.088 32.824 C 85.185 32.824 85.229 32.85 85.229 32.895 C 85.229 32.957 85.158 32.984 85.061 32.984 C 84.478 32.984 83.922 32.957 83.675 32.957 C 83.472 32.957 82.915 32.984 82.562 32.984 C 82.447 32.984 82.386 32.957 82.386 32.895 C 82.386 32.85 82.421 32.824 82.527 32.824 C 82.66 32.824 82.766 32.807 82.845 32.788 C 83.022 32.751 83.074 32.554 83.101 32.296 C 83.145 31.92 83.145 31.215 83.145 30.394 L 83.145 26.732 Z M 89.722 30.669 C 89.722 30.187 89.632 29.991 89.518 29.731 C 89.457 29.589 88.273 27.625 87.965 27.161 C 87.744 26.83 87.523 26.608 87.355 26.51 C 87.24 26.446 87.09 26.392 86.985 26.392 C 86.914 26.392 86.851 26.376 86.851 26.313 C 86.851 26.26 86.914 26.233 87.02 26.233 C 87.179 26.233 87.84 26.259 88.133 26.259 C 88.318 26.259 88.68 26.233 89.077 26.233 C 89.165 26.233 89.209 26.259 89.209 26.313 C 89.209 26.366 89.147 26.376 89.016 26.411 C 88.942 26.428 88.89 26.495 88.891 26.572 C 88.891 26.643 88.935 26.748 88.998 26.876 C 89.121 27.143 90.357 29.294 90.498 29.543 C 90.587 29.329 91.699 27.365 91.822 27.088 C 91.911 26.89 91.947 26.739 91.947 26.623 C 91.947 26.535 91.91 26.435 91.761 26.4 C 91.681 26.383 91.602 26.365 91.602 26.311 C 91.602 26.248 91.646 26.23 91.751 26.23 C 92.043 26.23 92.326 26.257 92.582 26.257 C 92.776 26.257 93.359 26.23 93.526 26.23 C 93.623 26.23 93.685 26.247 93.685 26.3 C 93.685 26.364 93.615 26.39 93.517 26.39 C 93.43 26.39 93.262 26.427 93.128 26.497 C 92.943 26.588 92.847 26.695 92.652 26.935 C 92.361 27.292 91.125 29.391 90.966 29.774 C 90.833 30.095 90.833 30.372 90.833 30.667 L 90.833 31.398 C 90.833 31.542 90.833 31.916 90.86 32.292 C 90.877 32.55 90.957 32.747 91.222 32.782 C 91.345 32.8 91.54 32.817 91.663 32.817 C 91.76 32.817 91.804 32.844 91.804 32.889 C 91.804 32.952 91.734 32.979 91.619 32.979 C 91.063 32.979 90.506 32.952 90.268 32.952 C 90.048 32.952 89.491 32.979 89.165 32.979 C 89.041 32.979 88.97 32.962 88.97 32.89 C 88.97 32.844 89.014 32.817 89.111 32.817 C 89.235 32.817 89.341 32.8 89.42 32.781 C 89.596 32.746 89.676 32.55 89.694 32.292 C 89.72 31.916 89.72 31.541 89.72 31.398 L 89.72 30.668 L 89.722 30.668 Z M 97.234 29.608 C 97.234 28.081 98.231 26.107 100.881 26.107 C 103.079 26.107 104.448 27.403 104.448 29.447 C 104.448 31.491 103.035 33.107 100.793 33.107 C 98.257 33.107 97.234 31.188 97.234 29.608 M 103.212 29.776 C 103.212 27.777 102.072 26.536 100.624 26.536 C 99.609 26.536 98.452 27.106 98.452 29.33 C 98.452 31.187 99.468 32.66 101.164 32.66 C 101.781 32.66 103.211 32.357 103.211 29.777 M 107.856 30.393 C 107.856 31.25 107.856 31.92 107.901 32.295 C 107.926 32.554 107.979 32.751 108.245 32.785 C 108.368 32.804 108.563 32.822 108.686 32.822 C 108.801 32.822 108.836 32.849 108.836 32.894 C 108.836 32.956 108.775 32.984 108.642 32.984 C 108.085 32.984 107.53 32.956 107.3 32.956 C 107.07 32.956 106.514 32.984 106.178 32.984 C 106.055 32.984 105.993 32.965 105.993 32.894 C 105.993 32.849 106.029 32.822 106.126 32.822 C 106.258 32.822 106.363 32.805 106.444 32.786 C 106.62 32.75 106.664 32.554 106.7 32.294 C 106.744 31.92 106.744 31.251 106.744 30.393 L 106.744 28.823 C 106.744 27.465 106.744 27.215 106.726 26.929 C 106.709 26.626 106.637 26.484 106.347 26.42 C 106.233 26.4 106.118 26.391 106.002 26.394 C 105.914 26.394 105.853 26.377 105.853 26.322 C 105.853 26.251 105.923 26.233 106.055 26.233 C 106.514 26.233 107.071 26.259 107.327 26.259 C 107.661 26.259 109.454 26.259 109.657 26.25 C 109.825 26.24 109.93 26.24 110.019 26.213 C 110.072 26.196 110.116 26.16 110.161 26.16 C 110.197 26.16 110.224 26.196 110.224 26.24 C 110.224 26.303 110.179 26.41 110.152 26.642 C 110.144 26.733 110.127 27.259 110.108 27.366 C 110.099 27.435 110.081 27.49 110.02 27.49 C 109.957 27.49 109.94 27.446 109.931 27.347 C 109.931 27.275 109.931 27.132 109.878 27.008 C 109.816 26.882 109.631 26.748 109.295 26.739 L 107.936 26.712 C 107.883 26.712 107.856 26.739 107.856 26.838 L 107.856 29.069 C 107.856 29.123 107.864 29.149 107.918 29.149 L 109.048 29.14 C 109.198 29.14 109.322 29.14 109.447 29.13 C 109.614 29.122 109.737 29.086 109.825 28.97 C 109.869 28.916 109.887 28.88 109.94 28.88 C 109.975 28.88 109.993 28.907 109.993 28.961 C 109.993 29.014 109.949 29.238 109.923 29.514 C 109.905 29.692 109.887 30.104 109.887 30.165 C 109.887 30.247 109.887 30.335 109.798 30.335 C 109.745 30.335 109.728 30.272 109.728 30.212 C 109.724 30.118 109.706 30.024 109.676 29.935 C 109.632 29.811 109.499 29.65 109.225 29.613 C 109.004 29.587 108.068 29.587 107.918 29.587 C 107.875 29.587 107.856 29.604 107.856 29.667 L 107.856 30.394 Z M 116.279 31.767 C 116.297 32.463 116.413 32.696 116.588 32.758 C 116.738 32.811 116.906 32.821 117.047 32.821 C 117.145 32.821 117.196 32.838 117.196 32.892 C 117.196 32.963 117.118 32.982 116.994 32.982 C 116.421 32.982 116.067 32.955 115.898 32.955 C 115.819 32.955 115.404 32.982 114.946 32.982 C 114.83 32.982 114.751 32.972 114.751 32.892 C 114.751 32.838 114.805 32.821 114.893 32.821 C 115.008 32.821 115.167 32.811 115.291 32.776 C 115.519 32.705 115.556 32.446 115.565 31.669 L 115.643 26.385 C 115.643 26.206 115.67 26.081 115.759 26.081 C 115.855 26.081 115.936 26.197 116.085 26.358 C 116.981 27.329 117.894 28.285 118.823 29.224 C 119.423 29.83 120.614 31.116 120.764 31.259 L 120.808 31.259 L 120.719 27.25 C 120.71 26.707 120.632 26.537 120.421 26.448 C 120.287 26.394 120.075 26.394 119.953 26.394 C 119.846 26.394 119.811 26.368 119.811 26.315 C 119.811 26.243 119.908 26.234 120.04 26.234 C 120.498 26.234 120.922 26.261 121.108 26.261 C 121.204 26.261 121.54 26.234 121.974 26.234 C 122.089 26.234 122.177 26.243 122.177 26.315 C 122.177 26.368 122.124 26.394 122.017 26.394 C 121.929 26.394 121.858 26.394 121.752 26.421 C 121.505 26.493 121.435 26.68 121.427 27.181 L 121.329 32.813 C 121.329 33.01 121.294 33.09 121.215 33.09 C 121.118 33.09 121.012 32.992 120.916 32.892 C 120.359 32.357 119.229 31.187 118.31 30.268 C 117.347 29.304 116.368 28.187 116.209 28.019 L 116.182 28.019 L 116.279 31.767 Z M 124.595 28.822 C 124.595 27.464 124.595 27.215 124.577 26.929 C 124.56 26.626 124.49 26.483 124.198 26.419 C 124.085 26.399 123.969 26.39 123.854 26.392 C 123.758 26.392 123.704 26.376 123.704 26.312 C 123.704 26.25 123.766 26.232 123.899 26.232 C 124.367 26.232 124.923 26.259 125.169 26.259 C 125.453 26.259 127.209 26.259 127.378 26.25 C 127.546 26.232 127.686 26.213 127.756 26.196 C 127.801 26.187 127.854 26.16 127.898 26.16 C 127.942 26.16 127.951 26.196 127.951 26.24 C 127.951 26.303 127.908 26.41 127.881 26.82 C 127.872 26.91 127.855 27.304 127.838 27.41 C 127.828 27.455 127.81 27.509 127.749 27.509 C 127.686 27.509 127.668 27.463 127.668 27.383 C 127.668 27.321 127.659 27.169 127.616 27.062 C 127.554 26.901 127.466 26.794 127.024 26.741 C 126.875 26.723 125.948 26.704 125.771 26.704 C 125.728 26.704 125.707 26.731 125.707 26.794 L 125.707 29.053 C 125.707 29.116 125.718 29.15 125.771 29.15 C 125.965 29.15 126.98 29.15 127.185 29.133 C 127.395 29.116 127.528 29.089 127.608 28.999 C 127.67 28.929 127.704 28.882 127.75 28.882 C 127.785 28.882 127.812 28.9 127.812 28.954 C 127.812 29.007 127.767 29.15 127.742 29.605 C 127.724 29.783 127.706 30.141 127.706 30.202 C 127.706 30.273 127.706 30.372 127.627 30.372 C 127.564 30.372 127.547 30.337 127.547 30.292 C 127.537 30.202 127.537 30.087 127.511 29.971 C 127.468 29.792 127.343 29.658 127.017 29.622 C 126.848 29.605 125.976 29.595 125.763 29.595 C 125.719 29.595 125.709 29.633 125.709 29.685 L 125.709 30.391 C 125.709 30.694 125.7 31.515 125.709 31.773 C 125.728 32.391 125.868 32.522 126.769 32.522 C 126.998 32.522 127.37 32.522 127.598 32.415 C 127.828 32.309 127.934 32.121 127.996 31.755 C 128.013 31.657 128.031 31.621 128.094 31.621 C 128.164 31.621 128.164 31.692 128.164 31.782 C 128.164 31.987 128.094 32.595 128.047 32.772 C 127.986 33.004 127.907 33.004 127.571 33.004 C 126.237 33.004 125.645 32.95 125.125 32.95 C 124.923 32.95 124.365 32.977 124.013 32.977 C 123.897 32.977 123.837 32.95 123.837 32.889 C 123.837 32.843 123.872 32.816 123.978 32.816 C 124.11 32.816 124.217 32.799 124.296 32.78 C 124.472 32.744 124.517 32.549 124.552 32.289 C 124.596 31.915 124.596 31.209 124.596 30.388 L 124.596 28.822 Z M 129.844 27.107 C 129.738 26.777 129.642 26.563 129.517 26.473 C 129.422 26.41 129.244 26.392 129.165 26.392 C 129.077 26.392 129.023 26.384 129.023 26.313 C 129.023 26.25 129.094 26.233 129.218 26.233 C 129.676 26.233 130.163 26.259 130.243 26.259 C 130.322 26.259 130.711 26.233 131.222 26.233 C 131.345 26.233 131.408 26.259 131.408 26.313 C 131.408 26.385 131.338 26.393 131.249 26.393 C 131.179 26.393 131.091 26.393 131.028 26.429 C 130.949 26.465 130.932 26.527 130.932 26.626 C 130.932 26.743 131.02 27.047 131.126 27.448 C 131.277 28.037 132.099 30.742 132.257 31.243 L 132.282 31.243 L 133.995 26.591 C 134.092 26.342 134.145 26.269 134.217 26.269 C 134.313 26.269 134.358 26.404 134.472 26.689 L 136.307 31.18 L 136.334 31.18 C 136.493 30.581 137.201 28.225 137.509 27.181 C 137.571 26.975 137.597 26.787 137.597 26.662 C 137.597 26.52 137.518 26.394 137.174 26.394 C 137.085 26.394 137.024 26.368 137.024 26.315 C 137.024 26.251 137.094 26.234 137.227 26.234 C 137.695 26.234 138.065 26.261 138.145 26.261 C 138.207 26.261 138.587 26.234 138.878 26.234 C 138.975 26.234 139.037 26.251 139.037 26.303 C 139.037 26.368 138.994 26.394 138.915 26.394 C 138.824 26.394 138.703 26.404 138.606 26.44 C 138.394 26.52 138.297 26.876 138.111 27.385 C 137.704 28.51 136.777 31.349 136.345 32.687 C 136.247 33 136.203 33.107 136.089 33.107 C 136.001 33.107 135.948 33 135.816 32.671 L 133.979 28.198 L 133.962 28.198 C 133.794 28.653 132.62 31.813 132.241 32.634 C 132.071 33 132.028 33.107 131.921 33.107 C 131.833 33.107 131.79 33.01 131.72 32.778 L 129.844 27.108 Z M 144.743 30.669 C 144.743 30.187 144.654 29.991 144.54 29.731 C 144.478 29.589 143.295 27.625 142.988 27.161 C 142.767 26.83 142.546 26.608 142.378 26.51 C 142.262 26.446 142.112 26.392 142.005 26.392 C 141.936 26.392 141.873 26.376 141.873 26.313 C 141.873 26.26 141.936 26.233 142.042 26.233 C 142.2 26.233 142.863 26.259 143.154 26.259 C 143.339 26.259 143.702 26.233 144.099 26.233 C 144.188 26.233 144.231 26.259 144.231 26.313 C 144.231 26.366 144.17 26.376 144.036 26.411 C 143.963 26.428 143.911 26.495 143.913 26.572 C 143.913 26.643 143.957 26.748 144.019 26.876 C 144.142 27.143 145.381 29.294 145.52 29.543 C 145.608 29.329 146.721 27.365 146.844 27.088 C 146.933 26.89 146.968 26.739 146.968 26.623 C 146.968 26.535 146.931 26.435 146.783 26.4 C 146.703 26.383 146.623 26.365 146.623 26.311 C 146.623 26.248 146.667 26.23 146.773 26.23 C 147.066 26.23 147.346 26.257 147.603 26.257 C 147.798 26.257 148.38 26.23 148.549 26.23 C 148.644 26.23 148.707 26.247 148.707 26.3 C 148.707 26.364 148.637 26.39 148.539 26.39 C 148.45 26.39 148.282 26.427 148.15 26.497 C 147.965 26.588 147.869 26.695 147.673 26.935 C 147.382 27.292 146.147 29.391 145.987 29.774 C 145.854 30.095 145.854 30.372 145.854 30.667 L 145.854 31.398 C 145.854 31.542 145.854 31.916 145.88 32.292 C 145.899 32.55 145.978 32.747 146.243 32.782 C 146.366 32.8 146.561 32.817 146.684 32.817 C 146.781 32.817 146.826 32.844 146.826 32.889 C 146.826 32.952 146.756 32.979 146.641 32.979 C 146.083 32.979 145.528 32.952 145.29 32.952 C 145.069 32.952 144.513 32.979 144.186 32.979 C 144.062 32.979 143.99 32.962 143.99 32.89 C 143.99 32.844 144.035 32.817 144.134 32.817 C 144.256 32.817 144.362 32.8 144.442 32.781 C 144.619 32.746 144.697 32.55 144.715 32.292 C 144.742 31.916 144.742 31.541 144.742 31.398 L 144.742 30.668 L 144.743 30.668 Z M 148.983 29.608 C 148.983 28.081 149.981 26.107 152.629 26.107 C 154.828 26.107 156.196 27.403 156.196 29.447 C 156.196 31.491 154.784 33.107 152.543 33.107 C 150.007 33.107 148.983 31.188 148.983 29.608 M 154.96 29.776 C 154.96 27.777 153.821 26.536 152.373 26.536 C 151.358 26.536 150.201 27.106 150.201 29.33 C 150.201 31.187 151.217 32.66 152.913 32.66 C 153.529 32.66 154.96 32.357 154.96 29.777 M 158.496 28.822 C 158.496 27.465 158.496 27.215 158.478 26.929 C 158.461 26.626 158.388 26.484 158.098 26.419 C 157.984 26.4 157.869 26.391 157.753 26.392 C 157.657 26.392 157.605 26.376 157.605 26.313 C 157.605 26.25 157.666 26.233 157.799 26.233 C 158.267 26.233 158.823 26.259 159.008 26.259 C 159.307 26.259 159.98 26.233 160.253 26.233 C 160.81 26.233 161.4 26.286 161.877 26.615 C 162.124 26.786 162.477 27.241 162.477 27.838 C 162.477 28.499 162.204 29.107 161.312 29.838 C 162.098 30.838 162.707 31.634 163.228 32.186 C 163.722 32.703 164.085 32.766 164.217 32.793 C 164.313 32.812 164.393 32.82 164.464 32.82 C 164.535 32.82 164.569 32.846 164.569 32.892 C 164.569 32.962 164.508 32.981 164.401 32.981 L 163.563 32.981 C 163.068 32.981 162.848 32.937 162.616 32.812 C 162.239 32.607 161.902 32.187 161.408 31.5 C 161.055 31.008 160.648 30.402 160.535 30.268 C 160.492 30.215 160.438 30.203 160.375 30.203 L 159.608 30.188 C 159.565 30.188 159.538 30.203 159.538 30.258 L 159.538 30.383 C 159.538 31.212 159.538 31.918 159.58 32.292 C 159.608 32.552 159.661 32.749 159.926 32.783 C 160.059 32.801 160.252 32.819 160.357 32.819 C 160.428 32.819 160.464 32.846 160.464 32.892 C 160.464 32.953 160.401 32.98 160.288 32.98 C 159.777 32.98 159.123 32.953 158.991 32.953 C 158.822 32.953 158.266 32.981 157.913 32.981 C 157.798 32.981 157.736 32.953 157.736 32.892 C 157.736 32.846 157.773 32.819 157.88 32.819 C 158.011 32.819 158.117 32.802 158.196 32.783 C 158.374 32.747 158.417 32.552 158.453 32.292 C 158.497 31.918 158.497 31.212 158.497 30.391 L 158.496 28.823 Z M 159.537 29.527 C 159.537 29.625 159.554 29.661 159.617 29.688 C 159.802 29.751 160.068 29.778 160.287 29.778 C 160.64 29.778 160.757 29.743 160.915 29.627 C 161.179 29.429 161.435 29.019 161.435 28.286 C 161.435 27.019 160.606 26.653 160.084 26.653 C 159.863 26.653 159.705 26.663 159.617 26.69 C 159.554 26.707 159.537 26.743 159.537 26.815 L 159.537 29.528 Z M 166.687 29.215 L 166.733 29.215 C 167.032 28.885 168.321 27.553 168.578 27.251 C 168.824 26.956 169.019 26.734 169.019 26.581 C 169.019 26.483 168.983 26.419 168.895 26.402 C 168.815 26.385 168.78 26.367 168.78 26.313 C 168.78 26.25 168.824 26.232 168.922 26.232 C 169.107 26.232 169.592 26.26 169.832 26.26 C 170.105 26.26 170.59 26.232 170.863 26.232 C 170.953 26.232 171.014 26.25 171.014 26.313 C 171.014 26.375 170.97 26.392 170.881 26.392 C 170.758 26.392 170.536 26.429 170.37 26.49 C 170.096 26.599 169.796 26.786 169.416 27.161 C 169.143 27.429 167.809 28.768 167.509 29.091 C 167.826 29.509 169.556 31.391 169.903 31.723 C 170.29 32.099 170.688 32.5 171.163 32.687 C 171.429 32.795 171.606 32.821 171.71 32.821 C 171.773 32.821 171.826 32.839 171.826 32.893 C 171.826 32.955 171.782 32.982 171.615 32.982 L 170.846 32.982 C 170.581 32.982 170.423 32.982 170.237 32.964 C 169.759 32.921 169.523 32.723 169.142 32.384 C 168.754 32.036 167.015 29.973 166.829 29.716 L 166.733 29.581 L 166.687 29.581 L 166.687 30.394 C 166.687 31.216 166.687 31.92 166.714 32.304 C 166.733 32.553 166.811 32.75 167.032 32.786 C 167.155 32.804 167.351 32.822 167.465 32.822 C 167.536 32.822 167.579 32.85 167.579 32.894 C 167.579 32.956 167.511 32.983 167.412 32.983 C 166.917 32.983 166.36 32.957 166.141 32.957 C 165.938 32.957 165.381 32.984 165.028 32.984 C 164.913 32.984 164.852 32.957 164.852 32.894 C 164.852 32.85 164.888 32.822 164.993 32.822 C 165.126 32.822 165.232 32.806 165.311 32.787 C 165.488 32.75 165.531 32.554 165.568 32.295 C 165.612 31.92 165.612 31.216 165.612 30.394 L 165.612 28.822 C 165.612 27.466 165.612 27.215 165.594 26.929 C 165.577 26.626 165.505 26.484 165.214 26.42 C 165.101 26.4 164.985 26.391 164.87 26.393 C 164.773 26.393 164.721 26.376 164.721 26.313 C 164.721 26.251 164.783 26.233 164.916 26.233 C 165.384 26.233 165.94 26.26 166.151 26.26 C 166.362 26.26 166.919 26.233 167.22 26.233 C 167.342 26.233 167.405 26.252 167.405 26.313 C 167.405 26.375 167.352 26.393 167.281 26.393 C 167.193 26.393 167.139 26.403 167.034 26.42 C 166.797 26.464 166.726 26.617 166.71 26.929 C 166.691 27.214 166.691 27.466 166.691 28.822 L 166.691 29.215 Z M 20.7 7.553 C 20.48 6.26 19.447 5.36 18.181 5.256 C 15.922 5.072 13.971 6.294 11.779 6.686 C 11.603 6.718 11.368 6.339 11.154 6.124 C 12.171 5.349 12.033 3.83 10.855 3.174 C 10.774 3.08 10.803 2.206 10.85 2.166 C 10.946 2.085 11.698 2.231 11.804 2.137 C 11.911 2.044 11.889 1.133 11.821 1.046 C 11.753 0.958 10.906 1.052 10.858 0.993 C 10.811 0.934 10.882 0.115 10.802 0.05 C 10.746 0.004 10.51 -0.001 10.38 0 C 10.249 -0.001 10.014 0.004 9.957 0.05 C 9.878 0.115 9.949 0.934 9.901 0.993 C 9.853 1.052 9.007 0.958 8.939 1.046 C 8.871 1.133 8.85 2.044 8.956 2.138 C 9.063 2.231 9.813 2.086 9.91 2.167 C 9.956 2.206 9.985 3.081 9.904 3.175 C 8.727 3.831 8.589 5.35 9.606 6.125 C 9.393 6.341 9.157 6.718 8.981 6.687 C 6.789 6.296 4.839 5.073 2.579 5.256 C 1.314 5.36 0.28 6.261 0.06 7.554 C -0.336 9.883 1.32 11.673 2.122 13.649 C 2.377 14.273 2.6 15.113 2.559 15.835 L 18.2 15.835 C 18.16 15.113 18.383 14.274 18.638 13.65 C 19.441 11.673 21.096 9.883 20.7 7.553 M 9.445 12.711 C 9.242 13.88 8.599 14.623 8.065 14.627 C 7.714 14.629 7.433 14.494 7.178 14.268 C 6.825 13.956 6.538 13.444 6.63 13.141 C 6.708 13.039 7.656 13.185 7.724 13.09 C 7.792 12.996 7.608 12.248 7.501 12.151 C 7.395 12.056 6.538 12.184 6.423 12.089 C 6.309 11.994 6.203 11.068 6.085 11.011 C 6.085 11.011 5.18 10.875 5.114 11.005 C 5.048 11.137 5.42 11.91 5.356 12.041 C 5.292 12.172 4.094 11.925 4.072 12.062 C 4.051 12.198 4.141 12.878 4.256 12.979 C 4.371 13.08 5.491 13.086 5.491 13.086 C 5.723 13.266 5.784 13.631 5.786 14.004 C 5.787 14.478 5.423 14.723 4.842 14.558 C 3.758 14.251 2.415 11.875 1.617 10.23 C 1.031 9.02 0.678 7.04 2.217 6.448 C 3.154 6.086 4.137 6.29 5.147 6.593 C 6.203 6.911 7.597 7.34 8.419 7.857 C 8.62 7.983 8.179 7.882 8.908 9.514 C 9.247 10.275 9.587 11.895 9.445 12.71 M 15.918 14.558 C 15.337 14.722 14.973 14.478 14.975 14.004 C 14.976 13.631 15.037 13.266 15.269 13.087 C 15.269 13.087 16.389 13.08 16.504 12.979 C 16.619 12.878 16.708 12.198 16.688 12.062 C 16.667 11.925 15.467 12.172 15.404 12.041 C 15.341 11.91 15.712 11.137 15.646 11.005 C 15.579 10.875 14.675 11.011 14.675 11.011 C 14.558 11.068 14.451 11.994 14.336 12.089 C 14.222 12.184 13.366 12.055 13.259 12.151 C 13.151 12.248 12.969 12.996 13.036 13.09 C 13.103 13.185 14.052 13.039 14.13 13.141 C 14.222 13.443 13.935 13.956 13.583 14.268 C 13.327 14.494 13.046 14.629 12.695 14.627 C 12.161 14.623 11.518 13.88 11.315 12.711 C 11.173 11.895 11.513 10.275 11.852 9.515 C 12.581 7.882 12.139 7.983 12.341 7.857 C 13.164 7.34 14.557 6.911 15.614 6.593 C 16.622 6.291 17.606 6.085 18.544 6.448 C 20.082 7.04 19.729 9.02 19.143 10.23 C 18.345 11.875 17.002 14.251 15.918 14.558 M 18.377 18.29 L 18.377 16.916 L 2.384 16.916 L 2.384 18.291 L 10.469 18.291 Z" fill="rgb(255, 255, 255)"></path></svg>