<svg xmlns="http://www.w3.org/2000/svg" viewBox="0 0 120.949 31.048" overflow="visible" id="svg92347989_47438"><g><path d="M 48.894 21.502 C 48.894 21.237 48.721 21.061 48.376 20.973 L 48.376 20.796 C 48.549 20.796 49.196 20.841 49.368 20.841 C 49.498 20.841 50.145 20.796 50.318 20.796 L 50.318 20.973 C 50.015 21.061 49.843 21.237 49.843 21.502 L 49.843 24.81 C 49.843 25.868 50.404 26.442 51.569 26.442 C 52.604 26.442 53.381 25.956 53.381 24.854 L 53.381 21.458 C 53.381 21.193 53.208 21.017 52.863 20.929 L 52.863 20.797 C 52.993 20.797 53.51 20.841 53.683 20.841 C 53.856 20.841 54.373 20.796 54.503 20.796 L 54.503 20.973 C 54.114 21.061 53.985 21.237 53.985 21.502 L 53.985 24.722 C 53.985 26.177 53.165 27.015 51.396 27.015 C 49.757 27.015 48.894 26.265 48.894 24.898 Z M 55.97 26.75 C 56.358 26.662 56.488 26.486 56.488 26.221 L 56.488 21.634 C 56.488 21.237 56.272 21.061 55.927 20.973 L 55.927 20.796 L 57.178 20.796 L 61.061 25.471 L 61.061 21.502 C 61.061 21.237 60.889 21.061 60.543 20.973 L 60.543 20.796 C 60.673 20.796 61.191 20.84 61.363 20.84 C 61.536 20.84 62.054 20.796 62.183 20.796 L 62.183 20.973 C 61.795 21.061 61.622 21.237 61.622 21.502 L 61.622 27.015 L 61.406 27.015 C 61.277 26.97 60.975 26.838 60.543 26.353 L 57.048 22.207 L 57.048 26.265 C 57.048 26.529 57.178 26.706 57.566 26.794 L 57.566 26.97 C 57.437 26.97 56.919 26.926 56.746 26.926 C 56.574 26.926 56.056 26.97 55.927 26.97 Z M 86.69 25.515 L 86.862 25.515 C 86.949 25.868 87.121 26.177 87.423 26.353 C 87.682 26.574 88.157 26.662 88.502 26.662 C 89.279 26.662 89.796 26.265 89.796 25.648 C 89.796 24.986 89.149 24.677 88.416 24.28 C 87.855 23.972 86.733 23.531 86.733 22.428 C 86.733 21.414 87.51 20.752 88.718 20.752 C 89.537 20.752 89.883 20.973 90.444 20.929 L 90.444 22.164 L 90.271 22.164 C 90.055 21.414 89.408 21.193 88.674 21.193 C 87.855 21.193 87.596 21.678 87.596 22.12 C 87.596 22.781 88.243 23.134 88.977 23.486 C 89.796 23.839 90.702 24.324 90.702 25.383 C 90.702 26.397 89.926 27.103 88.545 27.103 C 87.725 27.103 87.208 26.838 86.776 26.794 Z M 103.387 24.369 L 101.791 21.766 C 101.532 21.325 101.316 21.061 101.014 20.973 L 101.014 20.796 C 101.23 20.796 101.834 20.84 101.964 20.84 C 102.136 20.84 102.74 20.796 102.999 20.796 L 102.999 20.973 C 102.783 21.017 102.697 21.105 102.697 21.282 C 102.697 21.414 102.783 21.59 102.87 21.766 C 102.956 21.899 104.035 23.751 104.035 23.751 L 105.156 21.766 C 105.286 21.546 105.329 21.37 105.329 21.237 C 105.329 21.105 105.243 21.017 105.07 21.017 L 105.07 20.796 C 105.243 20.796 105.674 20.84 105.804 20.84 C 105.933 20.84 106.408 20.796 106.58 20.796 L 106.58 20.973 C 106.149 21.149 105.89 21.546 105.631 21.987 L 104.207 24.457 M 104.293 24.148 L 104.293 26.221 C 104.293 26.441 104.466 26.706 104.811 26.75 L 104.811 26.927 C 104.639 26.927 103.991 26.882 103.819 26.882 C 103.646 26.882 103.042 26.927 102.827 26.927 L 102.827 26.75 C 103.172 26.662 103.344 26.441 103.344 26.221 L 103.344 24.236 M 73.962 20.796 L 77.673 20.796 C 77.802 20.796 77.975 20.796 78.105 20.708 L 78.277 20.708 L 78.234 21.943 L 78.061 21.943 C 77.932 21.546 77.759 21.237 77.069 21.237 L 75.473 21.237 L 75.473 23.442 L 76.724 23.442 C 76.896 23.442 77.112 23.442 77.198 23.398 C 77.457 23.354 77.587 23.178 77.673 22.913 L 77.846 22.913 L 77.846 24.457 L 77.673 24.457 C 77.587 24.192 77.5 24.016 77.198 23.972 C 77.112 23.928 76.896 23.928 76.724 23.928 L 75.473 23.928 L 75.473 26.442 L 77.242 26.442 C 78.018 26.442 78.234 26.133 78.407 25.648 L 78.579 25.648 L 78.407 26.927 C 77.846 26.882 77.5 26.882 76.853 26.882 L 74.998 26.882 C 74.825 26.882 74.178 26.927 73.963 26.927 L 73.963 26.75 C 74.308 26.662 74.48 26.53 74.48 26.177 L 74.48 21.502 C 74.48 21.193 74.308 21.017 73.963 20.973 Z M 64.47 21.546 C 64.47 21.237 64.298 21.061 63.952 20.973 L 63.952 20.796 C 64.168 20.796 64.772 20.84 64.988 20.84 C 65.161 20.84 65.808 20.796 66.023 20.796 L 66.023 20.973 C 65.678 21.061 65.463 21.193 65.463 21.546 L 65.463 26.177 C 65.463 26.486 65.635 26.662 66.023 26.75 L 66.023 26.926 C 65.808 26.926 65.204 26.882 64.988 26.882 C 64.815 26.882 64.168 26.926 63.952 26.926 L 63.952 26.75 C 64.341 26.662 64.513 26.529 64.513 26.177 Z M 92.645 21.546 C 92.645 21.237 92.473 21.061 92.127 20.973 L 92.127 20.796 C 92.343 20.796 92.99 20.84 93.163 20.84 C 93.336 20.84 93.983 20.796 94.198 20.796 L 94.198 20.973 C 93.853 21.061 93.681 21.193 93.681 21.546 L 93.681 26.177 C 93.681 26.486 93.853 26.662 94.198 26.75 L 94.198 26.926 C 93.983 26.926 93.379 26.882 93.163 26.882 C 92.99 26.882 92.343 26.926 92.127 26.926 L 92.127 26.75 C 92.516 26.662 92.645 26.529 92.645 26.177 Z M 97.823 20.84 C 95.795 20.84 95.45 20.796 95.061 20.752 L 95.061 21.987 L 95.234 21.987 C 95.406 21.414 95.708 21.281 96.097 21.281 L 97.391 21.281 L 97.391 26.133 C 97.391 26.441 97.219 26.618 96.83 26.706 L 96.83 26.882 C 97.046 26.882 97.693 26.838 97.866 26.838 C 98.038 26.838 98.686 26.882 98.901 26.882 L 98.901 26.706 C 98.556 26.618 98.34 26.441 98.34 26.133 L 98.34 21.281 L 99.592 21.281 C 99.98 21.281 100.282 21.414 100.455 21.987 L 100.627 21.987 L 100.627 20.752 C 100.152 20.796 99.851 20.84 97.822 20.84 Z M 81.556 26.177 C 81.556 26.486 81.729 26.662 82.117 26.75 L 82.117 26.926 C 81.902 26.926 81.254 26.882 81.082 26.882 C 80.909 26.882 80.305 26.926 80.09 26.926 L 80.09 26.75 C 80.435 26.662 80.607 26.529 80.607 26.177 L 80.607 21.502 C 80.607 21.193 80.435 21.017 80.089 20.973 L 80.089 20.796 C 80.305 20.796 80.909 20.84 81.082 20.84 C 81.384 20.84 82.204 20.796 82.549 20.796 C 83.973 20.796 84.749 21.414 84.749 22.428 C 84.749 23.222 84.145 23.795 83.239 24.016 C 83.239 24.016 83.455 24.148 83.671 24.369 C 83.93 24.677 84.62 25.648 84.879 26 C 85.138 26.353 85.526 26.75 85.914 26.75 L 85.914 26.882 C 85.742 26.927 85.44 26.971 85.224 26.971 C 84.749 26.971 84.361 26.794 83.973 26.353 C 83.628 25.956 83.11 25.118 82.765 24.677 C 82.549 24.413 82.29 24.192 81.859 24.104 C 81.772 24.104 81.686 24.06 81.6 24.06 Z M 81.556 23.707 C 81.729 23.751 82.031 23.751 82.29 23.751 C 83.412 23.751 83.757 23.089 83.757 22.516 C 83.757 21.678 83.239 21.193 82.247 21.193 C 82.031 21.193 81.772 21.237 81.556 21.281 Z M 67.405 21.546 C 67.275 21.237 67.059 21.017 66.714 20.973 L 66.714 20.796 C 66.93 20.796 67.663 20.84 67.836 20.84 C 67.966 20.84 68.613 20.796 68.828 20.796 L 68.828 20.972 C 68.656 21.017 68.397 21.105 68.397 21.325 C 68.397 21.458 68.483 21.678 68.656 22.031 L 70.209 25.603 L 71.676 22.031 C 71.805 21.722 71.892 21.502 71.892 21.369 C 71.892 21.193 71.719 21.061 71.46 21.017 L 71.46 20.796 C 71.633 20.796 72.107 20.84 72.28 20.84 C 72.409 20.84 72.97 20.796 73.186 20.796 L 73.186 20.972 C 72.841 21.061 72.582 21.281 72.409 21.766 L 70.252 26.926 L 69.778 26.926 Z M 72.927 5.272 C 72.668 4.699 72.28 4.302 71.676 4.17 L 71.676 3.861 C 72.064 3.861 73.402 3.905 73.704 3.905 C 73.963 3.905 75.257 3.861 75.689 3.861 L 75.689 4.17 C 75.344 4.258 74.912 4.434 74.912 4.831 C 74.912 5.096 75.085 5.493 75.387 6.154 L 78.321 12.946 L 81.082 6.154 C 81.298 5.625 81.47 5.184 81.47 4.875 C 81.47 4.522 81.125 4.258 80.694 4.17 L 80.694 3.861 C 81.082 3.861 81.945 3.905 82.247 3.905 C 82.506 3.905 83.541 3.861 83.973 3.861 L 83.973 4.17 C 83.283 4.346 82.851 4.787 82.463 5.669 L 78.407 15.46 L 77.501 15.46 Z M 33.663 15.063 C 34.181 14.931 34.569 14.71 34.569 14.093 L 34.569 5.14 C 34.569 4.567 34.224 4.302 33.663 4.17 L 33.663 3.817 C 33.922 3.817 35.13 3.861 35.432 3.861 C 35.777 3.861 37.029 3.817 37.287 3.817 L 37.287 4.126 C 36.77 4.258 36.382 4.478 36.382 5.096 L 36.382 8.889 L 42.94 8.889 L 42.94 5.14 C 42.94 4.522 42.595 4.258 42.034 4.17 L 42.034 3.817 C 42.292 3.817 43.544 3.861 43.889 3.861 C 44.191 3.861 45.399 3.817 45.701 3.817 L 45.701 4.126 C 45.183 4.258 44.795 4.478 44.795 5.096 L 44.795 14.048 C 44.795 14.622 45.14 14.886 45.701 15.019 L 45.701 15.328 C 45.442 15.328 44.191 15.283 43.889 15.283 C 43.544 15.283 42.336 15.327 42.034 15.327 L 42.034 15.063 C 42.551 14.931 42.94 14.71 42.94 14.093 L 42.94 9.859 L 36.382 9.859 L 36.382 14.093 C 36.382 14.71 36.727 14.93 37.288 15.063 L 37.288 15.372 C 37.029 15.372 35.734 15.327 35.432 15.327 C 35.13 15.327 33.965 15.372 33.663 15.372 Z M 109.256 15.063 C 109.947 14.931 110.292 14.666 110.292 14.049 L 110.292 5.14 C 110.292 4.522 109.904 4.258 109.256 4.169 L 109.256 3.817 C 109.645 3.817 110.853 3.861 111.198 3.861 C 111.759 3.861 113.269 3.729 114.477 3.729 C 118.49 3.729 120.949 6.022 120.949 9.506 C 120.949 12.902 118.403 15.415 114.262 15.415 C 113.053 15.415 111.673 15.327 111.112 15.327 C 110.767 15.327 109.645 15.371 109.257 15.371 Z M 112.104 14.49 C 112.536 14.578 113.269 14.622 113.873 14.622 C 117.239 14.622 119.008 12.549 119.008 9.638 C 119.008 6.639 117.152 4.523 114.003 4.523 C 113.355 4.523 112.536 4.567 112.104 4.655 Z M 63.738 14.004 C 63.738 14.578 64.126 14.93 64.773 15.063 L 64.773 15.372 C 64.385 15.372 63.177 15.327 62.788 15.327 C 62.486 15.327 61.278 15.372 60.89 15.372 L 60.89 15.063 C 61.537 14.931 61.882 14.622 61.882 14.004 L 61.882 5.184 C 61.882 4.655 61.58 4.302 60.89 4.17 L 60.89 3.817 C 61.278 3.817 62.443 3.861 62.788 3.861 C 63.349 3.861 64.902 3.773 65.55 3.773 C 68.268 3.773 69.778 4.919 69.778 6.86 C 69.778 8.403 68.656 9.418 66.93 9.859 C 66.93 9.859 67.319 10.08 67.707 10.565 C 68.182 11.138 69.519 13.079 70.037 13.74 C 70.555 14.401 71.245 15.151 71.979 15.151 L 71.979 15.416 C 71.633 15.504 71.073 15.548 70.641 15.548 C 69.735 15.548 69.001 15.195 68.268 14.313 C 67.664 13.564 66.585 11.932 65.981 11.138 C 65.593 10.609 65.118 10.212 64.255 10.079 C 64.083 10.035 63.91 10.035 63.738 9.991 Z M 63.738 9.33 C 64.083 9.374 64.644 9.418 65.161 9.418 C 67.276 9.418 67.923 8.183 67.923 7.081 C 67.923 5.537 66.887 4.566 65.075 4.566 C 64.687 4.566 64.126 4.611 63.738 4.699 Z M 99.377 14.004 C 99.377 14.578 99.765 14.93 100.412 15.063 L 100.412 15.372 C 100.024 15.372 98.816 15.327 98.471 15.327 C 98.169 15.327 96.961 15.372 96.572 15.372 L 96.572 15.063 C 97.219 14.931 97.565 14.622 97.565 14.004 L 97.565 5.184 C 97.565 4.655 97.263 4.302 96.572 4.17 L 96.572 3.817 C 96.961 3.817 98.125 3.861 98.471 3.861 C 99.032 3.861 100.585 3.773 101.189 3.773 C 103.907 3.773 105.417 4.919 105.417 6.86 C 105.417 8.403 104.296 9.418 102.57 9.859 C 102.57 9.859 102.958 10.08 103.346 10.565 C 103.821 11.138 105.158 13.079 105.676 13.74 C 106.194 14.401 106.884 15.151 107.618 15.151 L 107.618 15.416 C 107.273 15.504 106.712 15.548 106.28 15.548 C 105.374 15.548 104.641 15.195 103.907 14.313 C 103.303 13.564 102.224 11.932 101.621 11.138 C 101.232 10.609 100.758 10.212 99.895 10.079 C 99.722 10.035 99.549 10.035 99.377 9.991 Z M 99.377 9.33 C 99.722 9.374 100.283 9.418 100.8 9.418 C 102.915 9.418 103.562 8.183 103.562 7.081 C 103.562 5.537 102.526 4.566 100.714 4.566 C 100.326 4.566 99.765 4.611 99.377 4.699 Z M 47.342 15.063 C 48.075 14.887 48.463 14.401 48.722 13.784 L 52.347 4.875 C 52.519 4.523 52.692 3.773 52.692 3.773 L 53.727 3.773 C 53.727 3.773 53.9 4.523 54.073 4.92 L 57.913 13.828 C 58.172 14.445 58.473 14.886 59.25 15.063 L 59.25 15.372 C 58.819 15.372 57.567 15.327 57.265 15.327 C 56.963 15.327 55.755 15.372 55.324 15.372 L 55.324 15.063 C 55.884 14.931 56.057 14.622 56.057 14.357 C 56.057 14.137 55.971 13.828 55.842 13.564 L 55.022 11.667 L 50.793 11.667 L 50.06 13.608 C 49.974 13.828 49.887 14.137 49.887 14.357 C 49.887 14.666 50.06 14.93 50.664 15.107 L 50.664 15.416 C 50.276 15.416 49.283 15.372 49.067 15.372 L 47.428 15.416 Z M 54.547 10.741 L 52.735 6.463 L 51.052 10.741 Z M 83.239 15.063 C 83.972 14.887 84.361 14.401 84.62 13.784 L 88.244 4.875 C 88.417 4.523 88.589 3.773 88.589 3.773 L 89.625 3.773 C 89.625 3.773 89.797 4.523 89.97 4.92 L 93.81 13.828 C 94.069 14.445 94.371 14.886 95.147 15.063 L 95.147 15.372 C 94.716 15.372 93.465 15.327 93.163 15.327 C 92.861 15.327 91.653 15.372 91.221 15.372 L 91.221 15.063 C 91.782 14.931 91.955 14.622 91.955 14.357 C 91.955 14.137 91.868 13.828 91.739 13.564 L 90.919 11.667 L 86.691 11.667 L 85.957 13.608 C 85.871 13.828 85.785 14.137 85.785 14.357 C 85.785 14.666 85.957 14.93 86.561 15.107 L 86.561 15.416 C 86.173 15.416 85.18 15.372 84.965 15.372 L 83.325 15.416 L 83.325 15.063 Z M 90.401 10.741 L 88.589 6.463 L 86.906 10.741 Z" fill="rgb(255, 255, 255)"></path><path d="M 0.209 0.213 L 25.449 0.213 L 25.449 9.96 C 25.449 14.414 23.81 23.896 12.937 30.952 C 12.937 30.952 1.115 25.925 0.208 9.96 Z" fill="rgb(0, 0, 0)" stroke="rgb(255, 255, 255)" stroke-linecap="square" stroke-linejoin="round"></path><path d="M 8.462 15.544 C 8.398 15.542 8.343 15.574 8.299 15.613 C 8.242 15.667 8.194 15.73 8.158 15.801 C 8.062 15.938 7.859 15.973 7.675 15.968 C 7.491 15.963 7.333 15.92 7.333 15.92 L 7.323 15.917 L 7.313 15.921 C 7.048 16.011 6.931 16.126 6.882 16.225 C 6.863 16.264 6.852 16.307 6.852 16.351 C 6.852 16.377 6.855 16.388 6.857 16.395 L 6.857 17.406 C 6.851 17.452 6.826 17.493 6.787 17.519 C 6.752 17.543 6.704 17.556 6.657 17.562 C 6.561 17.572 6.469 17.551 6.469 17.551 L 6.468 17.551 C 6.136 17.483 5.908 17.563 5.767 17.661 C 5.627 17.758 5.571 17.871 5.57 17.875 C 5.428 18.071 5.522 18.347 5.522 18.347 L 5.522 18.349 C 5.531 18.374 5.541 18.398 5.553 18.419 L 5.555 18.424 C 5.685 18.777 6.159 18.777 6.159 18.777 C 6.332 18.909 6.634 18.821 6.634 18.821 C 6.722 18.821 6.774 18.858 6.806 18.906 C 6.821 18.971 6.814 19.036 6.814 19.036 L 6.813 19.044 L 6.815 19.051 C 6.818 19.063 6.824 19.124 6.827 19.207 C 6.83 19.291 6.831 19.402 6.832 19.53 C 6.834 19.786 6.833 20.111 6.83 20.431 C 6.825 21.07 6.814 21.687 6.814 21.687 C 6.814 21.903 6.773 22.029 6.773 22.029 L 6.771 22.035 L 6.771 22.04 C 6.771 22.051 6.768 22.057 6.756 22.066 C 6.738 22.079 6.718 22.089 6.696 22.094 C 6.641 22.109 6.562 22.115 6.483 22.115 C 6.324 22.115 6.164 22.093 6.164 22.093 L 6.159 22.092 L 6.155 22.093 C 5.706 22.139 5.567 22.551 5.565 22.555 L 5.565 22.556 C 5.533 22.636 5.53 22.725 5.557 22.807 C 5.569 22.846 5.586 22.884 5.606 22.919 C 5.687 23.119 5.901 23.276 5.901 23.276 C 5.901 23.364 6.721 23.407 6.721 23.407 C 6.77 23.42 6.804 23.456 6.829 23.499 C 6.832 23.507 6.835 23.514 6.837 23.522 C 6.857 23.599 6.857 23.672 6.857 23.672 C 6.851 23.695 6.849 23.722 6.847 23.76 C 6.845 23.802 6.844 23.856 6.845 23.915 C 6.847 24.034 6.854 24.179 6.862 24.32 C 6.878 24.601 6.9 24.866 6.9 24.866 L 6.901 24.868 L 6.901 24.869 C 6.906 24.896 6.918 24.922 6.935 24.943 L 6.936 24.951 C 6.979 25.216 7.799 25.128 7.799 25.128 C 7.799 25.128 10.673 25.06 11.449 25.072 C 11.56 25.074 11.628 25.078 11.639 25.084 C 11.725 25.084 11.941 25.04 11.941 25.04 L 12.243 25.26 C 12.345 25.344 12.474 25.386 12.605 25.377 C 12.628 25.375 12.651 25.372 12.673 25.368 C 12.895 25.327 13.063 25.172 13.063 25.172 L 13.494 25.084 C 13.581 25.084 17.076 25.04 17.076 25.04 C 17.378 25.128 17.507 24.995 17.507 24.995 L 18.068 24.951 C 18.089 24.951 18.109 24.949 18.128 24.946 C 18.265 24.92 18.336 24.808 18.373 24.699 C 18.384 24.677 18.395 24.655 18.403 24.633 C 18.449 24.505 18.448 24.378 18.448 24.378 L 18.448 23.632 C 18.454 23.582 18.466 23.533 18.483 23.486 C 18.562 23.344 18.672 23.32 18.672 23.32 L 19.189 23.231 L 19.449 23.099 C 19.548 23.074 19.601 23.002 19.631 22.917 C 19.638 22.904 19.647 22.893 19.653 22.879 C 19.688 22.802 19.699 22.711 19.699 22.625 C 19.699 22.454 19.654 22.295 19.654 22.295 L 19.653 22.292 L 19.653 22.288 C 19.558 22.095 19.34 22.017 19.152 21.983 C 18.964 21.949 18.798 21.96 18.798 21.96 L 18.797 21.96 C 18.59 21.981 18.511 21.921 18.475 21.861 C 18.44 21.802 18.448 21.737 18.448 21.737 L 18.448 21.735 L 18.491 19.001 C 18.508 18.899 18.538 18.817 18.566 18.751 C 18.6 18.685 18.629 18.645 18.629 18.645 C 18.758 18.689 19.189 18.556 19.189 18.556 C 19.437 18.531 19.54 18.375 19.585 18.247 C 19.589 18.239 19.595 18.232 19.599 18.224 C 19.656 18.102 19.655 17.99 19.655 17.987 C 19.678 17.814 19.561 17.671 19.444 17.574 C 19.37 17.514 19.289 17.462 19.203 17.421 L 19.197 17.417 L 18.591 17.417 C 18.572 17.413 18.557 17.401 18.546 17.385 C 18.529 17.36 18.516 17.331 18.507 17.301 C 18.487 17.23 18.477 17.134 18.475 17.039 C 18.469 16.85 18.491 16.664 18.491 16.664 L 18.491 16.662 L 18.491 16.307 C 18.491 16.135 18.372 16.015 18.259 15.94 C 18.146 15.865 18.035 15.831 18.035 15.831 L 18.03 15.83 L 17.26 15.83 C 17.243 15.8 17.223 15.771 17.194 15.752 C 17.155 15.728 17.114 15.708 17.07 15.694 C 17.017 15.676 16.962 15.663 16.907 15.654 C 16.767 15.609 16.557 15.609 16.557 15.609 L 16.546 15.609 L 16.537 15.615 C 16.269 15.805 15.797 15.885 15.395 15.912 C 14.993 15.94 14.661 15.918 14.661 15.918 L 13.308 15.829 L 13.296 15.84 C 13.3 15.836 13.292 15.843 13.277 15.848 C 13.259 15.854 13.24 15.859 13.221 15.863 C 13.176 15.873 13.119 15.883 13.063 15.891 C 12.95 15.907 12.843 15.919 12.843 15.919 L 12.821 15.92 L 12.813 15.943 C 12.776 16.057 12.663 16.096 12.663 16.096 L 12.544 16.137 C 12.466 16.069 12.343 16.017 12.226 15.98 C 12.15 15.957 12.073 15.937 11.996 15.92 L 11.993 15.918 C 11.989 15.917 11.985 15.916 11.982 15.915 C 11.974 15.913 11.966 15.912 11.959 15.911 C 11.936 15.91 11.913 15.909 11.89 15.909 C 11.835 15.908 11.758 15.91 11.668 15.913 C 11.488 15.92 11.251 15.931 11.017 15.945 C 10.548 15.973 10.085 16.006 10.084 16.006 C 9.549 16.028 9.187 15.94 8.96 15.849 C 8.733 15.757 8.644 15.664 8.644 15.664 C 8.587 15.585 8.524 15.546 8.462 15.544 Z M 8.459 15.617 C 8.497 15.618 8.54 15.64 8.59 15.711 L 8.591 15.713 L 8.593 15.716 C 8.593 15.716 8.698 15.821 8.934 15.916 C 9.171 16.012 9.543 16.101 10.086 16.079 L 10.089 16.079 C 10.089 16.079 10.552 16.045 11.021 16.018 C 11.255 16.004 11.491 15.992 11.671 15.986 C 11.76 15.983 11.837 15.981 11.891 15.982 C 11.918 15.982 11.939 15.983 11.953 15.984 C 11.959 15.985 11.963 15.986 11.966 15.986 L 11.967 15.988 L 11.977 15.99 C 11.977 15.99 12.085 16.012 12.207 16.05 C 12.329 16.088 12.467 16.146 12.521 16.201 L 12.536 16.216 L 12.686 16.165 C 12.686 16.165 12.778 16.11 12.84 16.015 C 12.792 16.134 12.674 16.175 12.674 16.175 L 12.545 16.263 C 12.416 16.131 11.984 16.043 11.984 16.043 C 11.941 15.999 10.086 16.131 10.086 16.131 C 9.007 16.175 8.618 15.778 8.618 15.778 C 8.403 15.47 8.187 15.91 8.187 15.91 C 7.971 16.219 7.324 16.043 7.324 16.043 C 7.085 16.124 6.978 16.224 6.929 16.308 C 6.933 16.291 6.939 16.274 6.946 16.257 C 6.984 16.181 7.085 16.078 7.332 15.992 C 7.345 15.996 7.49 16.035 7.675 16.04 C 7.868 16.046 8.097 16.014 8.217 15.843 L 8.218 15.841 L 8.22 15.839 C 8.22 15.839 8.272 15.732 8.345 15.667 C 8.382 15.635 8.421 15.615 8.459 15.617 Z M 16.567 15.683 C 16.583 15.683 16.778 15.685 16.892 15.724 L 16.895 15.725 L 16.898 15.726 C 16.898 15.726 16.971 15.736 17.049 15.763 C 17.088 15.776 17.127 15.793 17.158 15.813 C 17.162 15.816 17.165 15.82 17.169 15.823 C 17.066 15.758 16.903 15.734 16.903 15.734 C 16.774 15.689 16.557 15.69 16.557 15.69 C 15.997 16.087 14.659 15.999 14.659 15.999 L 13.322 15.91 C 13.279 15.954 12.862 15.997 12.852 15.998 C 12.854 15.995 12.856 15.993 12.858 15.989 C 12.864 15.989 12.963 15.979 13.074 15.963 C 13.131 15.954 13.189 15.945 13.237 15.934 C 13.261 15.929 13.283 15.923 13.301 15.917 C 13.311 15.914 13.318 15.908 13.327 15.903 L 14.657 15.99 C 14.657 15.99 14.994 16.013 15.401 15.985 C 15.804 15.958 16.275 15.884 16.568 15.683 Z M 17.243 15.902 L 18.019 15.902 C 18.021 15.903 18.083 15.927 18.154 15.965 C 18.082 15.928 18.025 15.91 18.025 15.91 L 17.248 15.91 C 17.247 15.908 17.245 15.905 17.243 15.902 Z M 18.169 15.973 C 18.187 15.983 18.203 15.989 18.222 16.002 C 18.227 16.005 18.232 16.01 18.237 16.013 C 18.215 15.999 18.192 15.985 18.169 15.973 Z M 18.476 17.404 C 18.481 17.412 18.485 17.421 18.491 17.429 C 18.513 17.459 18.542 17.482 18.579 17.489 L 18.582 17.49 L 19.181 17.49 C 19.186 17.492 19.293 17.543 19.4 17.631 C 19.475 17.693 19.54 17.771 19.57 17.856 C 19.493 17.729 19.35 17.632 19.263 17.581 C 19.239 17.567 19.215 17.554 19.189 17.542 L 18.586 17.542 C 18.533 17.532 18.499 17.478 18.476 17.404 Z M 6.872 17.538 C 6.763 17.748 6.461 17.674 6.461 17.674 C 5.814 17.542 5.598 17.983 5.598 17.983 C 5.592 17.992 5.589 18 5.584 18.009 C 5.593 17.975 5.608 17.944 5.628 17.916 L 5.631 17.911 C 5.631 17.911 5.68 17.81 5.808 17.721 C 5.936 17.632 6.14 17.558 6.454 17.622 C 6.454 17.622 6.555 17.645 6.665 17.633 C 6.72 17.627 6.778 17.613 6.828 17.579 C 6.844 17.568 6.858 17.554 6.871 17.538 Z M 18.421 21.904 C 18.473 21.985 18.587 22.055 18.804 22.033 C 18.804 22.033 18.963 22.022 19.142 22.054 C 19.32 22.086 19.51 22.161 19.589 22.32 C 19.589 22.321 19.594 22.343 19.596 22.35 C 19.393 22.045 18.802 22.084 18.802 22.084 C 18.52 22.113 18.442 21.992 18.421 21.904 Z M 6.811 22.112 L 6.807 22.128 C 6.806 22.15 6.796 22.171 6.779 22.184 C 6.757 22.2 6.732 22.211 6.706 22.217 C 6.524 22.267 6.159 22.217 6.159 22.217 C 5.847 22.249 5.694 22.464 5.633 22.581 C 5.633 22.581 5.753 22.208 6.163 22.165 C 6.17 22.166 6.323 22.187 6.484 22.187 C 6.566 22.187 6.649 22.182 6.715 22.164 C 6.748 22.155 6.778 22.142 6.802 22.123 C 6.805 22.12 6.808 22.115 6.811 22.112 Z M 9.817 3.302 L 9.804 3.313 C 9.131 3.873 8.153 3.615 8.153 3.615 L 8.148 3.614 L 8.144 3.614 C 7.194 3.614 6.888 3.658 6.888 3.658 L 6.874 3.661 L 6.866 3.671 C 6.767 3.792 6.647 3.79 6.541 3.759 C 6.475 3.739 6.412 3.708 6.356 3.667 C 6.336 3.638 6.305 3.621 6.272 3.609 C 6.231 3.596 6.19 3.586 6.148 3.581 C 6.064 3.57 5.987 3.569 5.987 3.569 L 5.985 3.569 L 5.984 3.57 C 5.037 3.636 4.447 3.581 4.095 3.51 C 3.919 3.475 3.803 3.435 3.731 3.405 C 3.659 3.375 3.634 3.356 3.634 3.356 L 3.638 3.36 C 3.626 3.348 3.611 3.34 3.595 3.336 C 3.577 3.331 3.559 3.327 3.541 3.324 C 3.496 3.318 3.451 3.313 3.406 3.311 C 3.313 3.305 3.225 3.305 3.225 3.305 L 3.203 3.305 L 3.193 3.325 C 3.156 3.401 3.039 3.563 3.031 3.575 C 3.018 3.579 3.006 3.581 2.993 3.582 C 2.962 3.586 2.932 3.588 2.901 3.588 C 2.829 3.59 2.741 3.589 2.655 3.587 C 2.483 3.581 2.322 3.57 2.322 3.57 L 2.32 3.57 L 2.319 3.57 C 2.139 3.57 2.031 3.629 1.971 3.691 C 1.935 3.726 1.909 3.771 1.896 3.819 L 1.896 3.822 L 1.853 4.665 L 1.853 4.668 C 1.874 4.93 1.848 5.036 1.831 5.064 C 1.822 5.078 1.822 5.075 1.821 5.075 L 1.792 5.055 L 1.772 5.086 C 1.76 5.103 1.718 5.126 1.656 5.14 C 1.587 5.154 1.516 5.162 1.445 5.163 C 1.296 5.169 1.157 5.158 1.157 5.158 L 1.154 5.157 L 1.151 5.158 C 1.045 5.168 0.949 5.222 0.884 5.307 C 0.823 5.385 0.786 5.482 0.764 5.577 C 0.719 5.765 0.731 5.946 0.731 5.946 L 0.731 5.951 C 0.754 6.07 0.821 6.154 0.904 6.208 C 0.988 6.262 1.088 6.288 1.183 6.299 C 1.367 6.322 1.53 6.29 1.539 6.288 L 1.54 6.288 C 1.77 6.31 1.853 6.382 1.884 6.441 C 1.915 6.499 1.897 6.55 1.897 6.55 L 1.896 6.555 L 1.896 6.561 C 1.896 6.653 1.907 7.378 1.917 8.083 L 1.938 9.467 C 1.928 9.562 1.903 9.621 1.874 9.658 C 1.851 9.689 1.816 9.71 1.778 9.717 C 1.71 9.731 1.643 9.704 1.643 9.704 L 1.636 9.7 L 1.629 9.7 C 1.147 9.7 0.925 9.872 0.832 10.05 C 0.777 10.158 0.756 10.282 0.775 10.403 C 0.798 10.723 0.996 10.871 1.182 10.928 C 1.368 10.986 1.547 10.963 1.547 10.963 L 1.542 10.964 C 1.773 10.964 1.868 11.026 1.908 11.081 C 1.948 11.135 1.939 11.186 1.939 11.186 L 1.938 11.197 L 1.943 11.208 C 1.941 11.205 1.948 11.231 1.95 11.264 C 1.951 11.298 1.952 11.342 1.951 11.394 C 1.949 11.496 1.942 11.625 1.934 11.752 C 1.918 12.005 1.896 12.247 1.896 12.247 L 1.896 12.251 L 1.897 12.257 C 1.942 12.51 2.086 12.614 2.215 12.644 C 2.335 12.672 2.433 12.643 2.448 12.639 L 2.45 12.639 L 5.894 12.728 C 6.386 13.094 6.703 13.104 6.894 13.004 C 7.076 12.908 7.123 12.737 7.129 12.717 L 7.189 12.727 C 7.228 12.733 7.303 12.737 7.413 12.74 C 7.524 12.743 7.667 12.745 7.832 12.746 C 8.161 12.748 8.576 12.747 8.986 12.744 C 9.396 12.742 9.801 12.737 10.108 12.734 C 10.415 12.73 10.624 12.728 10.644 12.728 L 10.647 12.728 C 10.788 12.76 10.899 12.753 10.984 12.719 C 11.061 12.689 11.125 12.634 11.168 12.562 C 11.214 12.481 11.24 12.39 11.243 12.296 L 11.243 12.295 L 11.286 11.244 C 11.304 11.175 11.378 11.124 11.453 11.093 C 11.527 11.063 11.593 11.053 11.598 11.052 C 12.077 11.117 12.312 10.945 12.415 10.752 C 12.518 10.559 12.495 10.353 12.495 10.351 L 12.495 10.351 C 12.472 10.03 12.286 9.871 12.111 9.802 C 11.935 9.732 11.767 9.745 11.767 9.745 L 11.769 9.744 C 11.541 9.744 11.436 9.663 11.383 9.584 C 11.351 9.538 11.333 9.485 11.33 9.429 L 11.33 9.428 C 11.341 9.351 11.349 9.161 11.355 8.903 C 11.361 8.643 11.365 8.32 11.367 8.006 C 11.373 7.377 11.373 6.782 11.373 6.782 C 11.373 6.728 11.403 6.641 11.435 6.571 C 11.462 6.51 11.483 6.474 11.49 6.463 C 11.755 6.491 11.958 6.475 12.101 6.423 C 12.249 6.369 12.341 6.28 12.393 6.187 C 12.497 6.005 12.451 5.812 12.449 5.808 C 12.469 5.642 12.445 5.517 12.388 5.43 C 12.33 5.34 12.243 5.291 12.157 5.264 C 11.99 5.213 11.823 5.244 11.812 5.246 C 11.517 5.246 11.416 5.162 11.38 5.089 C 11.344 5.016 11.371 4.942 11.371 4.942 L 11.372 4.938 L 11.373 4.935 C 11.438 4.512 11.416 4.22 11.378 4.034 C 11.339 3.847 11.28 3.761 11.28 3.761 L 11.276 3.756 L 11.271 3.752 C 11.227 3.722 11.163 3.71 11.086 3.702 C 11.003 3.694 10.919 3.69 10.836 3.691 C 10.667 3.691 10.516 3.702 10.516 3.702 L 10.505 3.703 L 10.497 3.709 C 10.466 3.732 10.433 3.73 10.387 3.706 C 10.341 3.683 10.289 3.637 10.242 3.586 C 10.148 3.485 10.073 3.366 10.073 3.366 L 10.065 3.353 Z M 22.027 3.302 L 22.015 3.313 C 21.342 3.873 20.363 3.615 20.363 3.615 L 20.359 3.614 L 20.354 3.614 C 19.447 3.614 19.141 3.658 19.141 3.658 L 19.128 3.661 L 19.119 3.671 C 19.021 3.792 18.901 3.79 18.795 3.759 C 18.729 3.739 18.667 3.708 18.61 3.668 C 18.591 3.638 18.559 3.621 18.525 3.609 C 18.485 3.596 18.444 3.586 18.401 3.581 C 18.318 3.57 18.24 3.569 18.24 3.569 L 18.239 3.569 L 18.238 3.57 C 17.291 3.636 16.701 3.581 16.349 3.51 C 16.173 3.475 16.056 3.435 15.985 3.405 C 15.913 3.375 15.888 3.356 15.888 3.356 L 15.892 3.36 C 15.88 3.348 15.865 3.34 15.848 3.336 C 15.83 3.331 15.812 3.327 15.794 3.324 C 15.749 3.318 15.704 3.313 15.659 3.311 C 15.566 3.305 15.479 3.305 15.479 3.305 L 15.457 3.305 L 15.447 3.325 C 15.409 3.402 15.292 3.564 15.283 3.576 C 15.271 3.579 15.258 3.581 15.246 3.582 C 15.215 3.586 15.185 3.588 15.154 3.588 C 15.083 3.59 14.994 3.589 14.909 3.587 C 14.737 3.581 14.575 3.57 14.575 3.57 L 14.574 3.57 L 14.573 3.57 C 14.372 3.57 14.254 3.628 14.188 3.689 C 14.121 3.751 14.106 3.819 14.106 3.819 L 14.106 4.712 C 14.127 4.951 14.101 5.046 14.085 5.068 C 14.077 5.079 14.078 5.075 14.077 5.075 L 14.074 5.075 L 14.046 5.055 L 14.025 5.085 C 14.014 5.103 13.971 5.126 13.91 5.14 C 13.84 5.154 13.769 5.162 13.697 5.163 C 13.549 5.169 13.41 5.158 13.41 5.158 L 13.408 5.157 L 13.404 5.158 C 13.277 5.17 13.181 5.227 13.113 5.305 C 13.046 5.383 13.005 5.481 12.98 5.576 C 12.929 5.765 12.941 5.946 12.941 5.946 L 12.941 5.948 L 12.942 5.951 C 12.965 6.07 13.032 6.154 13.115 6.208 C 13.198 6.262 13.297 6.288 13.392 6.299 C 13.511 6.313 13.632 6.309 13.75 6.288 L 13.751 6.288 C 13.98 6.31 14.063 6.382 14.094 6.441 C 14.124 6.499 14.108 6.55 14.108 6.55 L 14.107 6.551 L 14.107 6.552 C 14.099 6.586 14.097 6.643 14.094 6.735 C 14.09 6.853 14.088 6.972 14.088 7.09 C 14.086 7.421 14.086 7.752 14.089 8.083 C 14.095 8.786 14.106 9.462 14.106 9.467 C 14.096 9.562 14.07 9.621 14.041 9.658 C 14.018 9.689 13.983 9.71 13.945 9.717 C 13.877 9.731 13.81 9.703 13.81 9.703 L 13.804 9.7 L 13.796 9.7 C 13.314 9.7 13.092 9.872 12.999 10.05 C 12.943 10.158 12.923 10.282 12.942 10.403 C 12.965 10.723 13.163 10.871 13.349 10.928 C 13.535 10.986 13.714 10.963 13.714 10.963 L 13.71 10.964 C 13.919 10.964 14.013 11.025 14.06 11.082 C 14.106 11.139 14.106 11.192 14.106 11.192 L 14.106 11.2 L 14.11 11.208 C 14.108 11.205 14.115 11.231 14.116 11.264 C 14.118 11.298 14.118 11.342 14.117 11.393 C 14.115 11.496 14.108 11.625 14.1 11.752 C 14.084 12.005 14.063 12.247 14.063 12.247 L 14.062 12.251 L 14.063 12.256 C 14.108 12.51 14.253 12.614 14.382 12.644 C 14.501 12.672 14.6 12.644 14.615 12.64 L 14.617 12.64 L 18.061 12.728 C 18.553 13.095 18.869 13.105 19.059 13.005 C 19.243 12.908 19.302 12.725 19.307 12.708 L 19.308 12.707 C 19.321 12.682 19.345 12.665 19.373 12.662 C 19.381 12.662 19.381 12.664 19.379 12.661 C 19.377 12.659 19.381 12.66 19.373 12.676 L 19.352 12.72 L 19.399 12.727 C 19.438 12.734 19.513 12.737 19.623 12.74 C 19.734 12.744 19.877 12.745 20.041 12.746 C 20.371 12.749 20.786 12.747 21.196 12.745 C 21.606 12.742 22.01 12.738 22.317 12.735 C 22.625 12.731 22.838 12.729 22.857 12.729 C 23.008 12.76 23.124 12.752 23.212 12.719 C 23.3 12.685 23.359 12.624 23.394 12.56 C 23.466 12.433 23.453 12.291 23.453 12.291 L 23.453 12.296 L 23.496 11.244 C 23.514 11.174 23.586 11.124 23.662 11.093 C 23.737 11.062 23.804 11.054 23.808 11.053 C 24.287 11.118 24.522 10.944 24.625 10.752 C 24.728 10.559 24.704 10.354 24.704 10.352 L 24.704 10.35 C 24.681 10.029 24.496 9.871 24.32 9.802 C 24.145 9.732 23.976 9.745 23.976 9.745 L 23.979 9.744 C 23.728 9.744 23.625 9.662 23.578 9.584 C 23.531 9.507 23.54 9.432 23.54 9.432 L 23.54 9.428 C 23.54 9.167 23.583 6.782 23.583 6.782 L 23.583 6.781 C 23.583 6.727 23.613 6.64 23.645 6.571 C 23.672 6.509 23.694 6.474 23.7 6.463 C 23.966 6.49 24.169 6.474 24.311 6.422 C 24.46 6.368 24.551 6.279 24.604 6.187 C 24.708 6.004 24.661 5.812 24.66 5.807 C 24.68 5.642 24.655 5.516 24.598 5.429 C 24.54 5.34 24.453 5.29 24.367 5.264 C 24.199 5.212 24.031 5.244 24.022 5.246 C 23.727 5.246 23.627 5.162 23.591 5.089 C 23.555 5.016 23.581 4.942 23.581 4.942 L 23.583 4.935 C 23.648 4.512 23.627 4.22 23.588 4.033 C 23.549 3.847 23.49 3.761 23.49 3.761 L 23.486 3.756 L 23.481 3.752 C 23.437 3.722 23.374 3.71 23.297 3.702 C 23.213 3.694 23.13 3.69 23.046 3.691 C 22.878 3.691 22.725 3.702 22.725 3.702 L 22.715 3.703 L 22.707 3.709 C 22.676 3.732 22.643 3.73 22.597 3.706 C 22.551 3.683 22.498 3.637 22.451 3.586 C 22.357 3.485 22.284 3.366 22.284 3.366 L 22.275 3.353 Z" fill="rgb(0, 0, 0)"></path><path d="M 12.858 31.048 L 12.771 31.004 C 12.685 30.96 0.906 25.756 0 9.923 L 0 0 L 25.542 0 L 25.542 9.879 C 25.542 13.76 24.334 23.639 12.944 30.96 Z M 0.302 0.308 L 0.302 9.878 C 1.165 24.873 11.865 30.253 12.858 30.694 C 24.033 23.417 25.241 13.715 25.241 9.878 L 25.241 0.308 Z" fill="rgb(0, 0, 0)"></path><path d="M 3.777 3.729 C 3.777 3.729 3.518 3.729 3.561 3.905 L 3.475 10.608 C 3.475 10.608 3.475 10.917 3.95 10.961 C 3.95 10.961 4.553 11.006 4.683 10.961 L 6.064 10.961 C 6.064 10.961 6.323 11.226 6.323 10.917 C 6.323 10.917 6.495 5.493 6.409 4.346 C 6.409 4.346 6.409 3.86 6.02 3.86 C 6.02 3.86 4.468 3.993 4.338 3.86 Z M 9.766 3.739 C 9.709 3.734 9.617 3.75 9.472 3.816 C 9.472 3.816 9.516 3.993 7.574 3.905 C 7.531 3.905 6.797 3.905 6.754 4.213 C 6.754 4.213 6.711 7.389 6.711 7.477 L 6.667 10.123 L 6.624 11.049 C 6.624 11.049 6.754 11.225 6.84 11.093 C 6.84 11.093 7.487 10.917 7.919 11.005 C 7.919 11.005 9.214 11.137 9.516 10.917 C 9.516 10.917 9.731 11.005 9.774 10.696 C 9.774 10.696 9.861 4.831 9.817 4.742 C 9.817 4.742 9.903 3.905 9.86 3.816 C 9.86 3.816 9.861 3.747 9.766 3.739 Z M 2.653 3.903 C 2.568 3.906 2.445 3.96 2.267 4.126 L 2.224 5.008 C 2.224 5.008 2.224 5.493 1.792 5.449 C 1.792 5.449 1.317 5.449 1.058 5.669 C 1.058 5.669 0.929 6.109 1.404 6.066 C 1.404 6.066 2.138 6.066 2.181 6.374 L 2.137 9.55 C 2.137 9.55 2.31 10.079 1.749 10.079 C 1.749 10.079 1.058 10.035 1.058 10.476 C 1.058 10.476 1.188 10.829 1.792 10.741 C 1.792 10.741 2.224 10.829 2.181 11.226 L 2.181 12.019 C 2.181 12.019 2.137 12.328 2.568 12.372 L 5.761 12.372 C 5.761 12.372 5.934 12.372 5.934 12.196 C 5.934 12.196 5.934 12.019 5.675 12.019 L 3.043 11.931 C 3.043 11.931 2.611 12.064 2.568 11.402 C 2.568 11.402 2.61 5.739 2.611 5.49 L 2.612 5.493 L 2.611 5.469 L 2.612 5.404 L 2.61 5.4 C 2.606 5.184 2.605 4.416 2.828 4.037 C 2.828 4.037 2.794 3.899 2.653 3.903 Z M 10.823 3.92 C 10.638 3.936 10.637 4.17 10.637 4.17 C 10.724 4.258 10.766 4.567 10.766 4.567 C 10.809 5.272 10.766 6.066 10.766 6.816 C 10.723 9.33 10.637 11.623 10.637 11.623 C 10.637 12.108 10.379 11.975 10.379 11.975 L 7.53 11.975 C 7.228 11.975 7.228 12.152 7.228 12.152 C 7.271 12.416 7.53 12.328 7.53 12.328 C 7.789 12.373 10.637 12.328 10.637 12.328 C 11.068 12.373 11.025 11.799 11.025 11.799 C 11.069 10.784 11.155 10.696 11.155 10.696 C 11.241 10.652 11.716 10.652 11.716 10.652 C 12.492 10.696 12.147 10.167 12.147 10.167 C 12.061 10.035 11.543 10.035 11.543 10.035 C 11.068 10.079 11.112 9.549 11.112 9.549 L 11.155 6.506 C 11.068 6.242 11.284 6.11 11.284 6.11 L 11.759 6.11 C 12.406 6.154 12.233 5.713 12.233 5.713 C 12.233 5.493 11.673 5.404 11.673 5.404 C 11.155 5.492 11.197 5.183 11.197 5.183 L 11.197 4.434 C 11.284 3.949 10.982 3.949 10.982 3.949 C 10.917 3.924 10.865 3.916 10.822 3.92 Z M 10.213 4.018 C 10.158 4.026 10.098 4.07 10.033 4.17 L 10.033 10.785 C 10.033 10.785 10.206 11.358 10.465 11.314 C 10.465 11.314 10.508 11.182 10.508 10.961 L 10.594 4.654 C 10.594 4.654 10.452 3.985 10.213 4.018 Z M 3.259 4.081 C 2.871 4.081 2.828 4.831 2.828 4.831 L 2.784 11.093 C 2.827 11.402 2.914 11.358 2.914 11.358 C 3.302 11.093 3.259 10.652 3.259 10.652 C 3.259 10.652 3.302 4.699 3.302 4.611 C 3.302 4.522 3.259 4.081 3.259 4.081 Z M 3.439 11.134 C 3.418 11.135 3.398 11.139 3.378 11.145 C 3.292 11.17 3.186 11.246 3.096 11.429 L 3.094 11.433 L 3.093 11.436 C 3.093 11.436 3.068 11.518 3.087 11.599 C 3.098 11.645 3.127 11.683 3.168 11.704 C 3.213 11.725 3.271 11.726 3.348 11.705 L 5.454 11.705 L 6.02 11.838 L 6.028 11.837 C 6.028 11.837 6.068 11.827 6.118 11.808 C 6.168 11.789 6.228 11.762 6.273 11.716 C 6.296 11.693 6.313 11.664 6.322 11.632 C 6.33 11.595 6.325 11.556 6.308 11.522 C 6.274 11.447 6.193 11.371 6.039 11.281 L 6.03 11.276 L 3.997 11.276 C 3.994 11.275 3.902 11.255 3.796 11.228 C 3.689 11.2 3.566 11.164 3.534 11.148 L 3.532 11.147 L 3.532 11.147 C 3.532 11.147 3.494 11.132 3.439 11.135 Z M 9.849 11.251 C 9.728 11.245 9.558 11.27 9.558 11.27 C 9.213 11.49 7.185 11.314 7.185 11.314 C 7.056 11.314 6.883 11.534 6.883 11.534 C 6.84 11.931 7.487 11.755 7.444 11.755 L 9.86 11.755 C 10.249 11.843 10.249 11.667 10.249 11.667 C 10.249 11.535 9.947 11.27 9.947 11.27 C 9.926 11.259 9.89 11.253 9.849 11.251 Z M 6.657 11.745 C 6.646 11.746 6.635 11.749 6.624 11.755 C 6.624 11.755 6.236 11.755 6.236 12.285 C 6.236 12.285 6.279 12.681 6.667 12.681 C 6.667 12.681 7.013 12.593 7.013 12.196 C 7.013 12.196 6.823 11.731 6.657 11.745 Z M 15.944 3.729 C 15.944 3.729 15.685 3.729 15.728 3.905 L 15.642 10.608 C 15.642 10.608 15.642 10.917 16.117 10.961 C 16.117 10.961 16.721 11.005 16.851 10.961 L 18.231 10.961 C 18.231 10.961 18.49 11.225 18.49 10.873 C 18.49 10.873 18.663 5.448 18.576 4.301 C 18.576 4.301 18.576 3.816 18.188 3.816 C 18.188 3.816 16.635 3.948 16.505 3.816 Z M 21.916 3.783 C 21.865 3.785 21.79 3.805 21.682 3.86 C 21.682 3.86 21.725 4.037 19.784 3.949 C 19.741 3.949 18.964 3.905 18.964 4.257 C 18.964 4.257 18.921 7.433 18.921 7.521 L 18.878 10.167 L 18.792 11.093 C 18.792 11.093 18.921 11.269 19.008 11.137 C 19.008 11.137 19.655 10.961 20.086 11.049 C 20.086 11.049 21.38 11.182 21.682 10.961 C 21.682 10.961 21.898 11.05 21.941 10.741 C 21.941 10.741 22.027 4.875 21.984 4.787 C 21.984 4.787 22.071 3.949 22.028 3.86 C 22.028 3.86 22.028 3.778 21.916 3.783 Z M 14.777 3.903 C 14.692 3.906 14.569 3.96 14.391 4.126 L 14.391 4.963 C 14.391 4.963 14.391 5.448 13.959 5.404 C 13.959 5.404 13.485 5.404 13.226 5.624 C 13.226 5.624 13.096 6.066 13.571 6.021 C 13.571 6.021 14.304 6.022 14.348 6.331 L 14.305 9.506 C 14.305 9.506 14.477 10.035 13.873 10.035 C 13.873 10.035 13.183 9.991 13.183 10.432 C 13.183 10.432 13.312 10.784 13.916 10.696 C 13.916 10.696 14.348 10.785 14.348 11.182 L 14.348 11.975 C 14.348 11.975 14.305 12.284 14.693 12.328 L 17.885 12.328 C 17.885 12.328 18.058 12.328 18.058 12.152 C 18.058 12.152 18.058 11.975 17.799 11.975 L 15.21 11.931 C 15.21 11.931 14.779 12.064 14.736 11.402 C 14.736 11.402 14.779 5.492 14.736 5.404 L 14.736 5.492 C 14.736 5.492 14.693 4.478 14.951 4.037 C 14.951 4.037 14.918 3.899 14.776 3.903 Z M 22.99 3.92 C 22.804 3.936 22.804 4.17 22.804 4.17 C 22.847 4.258 22.934 4.567 22.934 4.567 C 22.977 5.272 22.934 6.066 22.934 6.816 C 22.905 8.419 22.862 10.021 22.804 11.623 C 22.804 12.108 22.545 11.975 22.545 11.975 L 19.698 11.975 C 19.396 11.975 19.395 12.152 19.395 12.152 C 19.439 12.416 19.741 12.329 19.741 12.284 C 20 12.328 22.847 12.284 22.847 12.284 C 23.279 12.328 23.236 11.755 23.236 11.755 C 23.279 10.74 23.365 10.652 23.365 10.652 C 23.452 10.608 23.926 10.608 23.926 10.608 C 24.659 10.652 24.314 10.123 24.314 10.123 C 24.228 9.991 23.71 9.991 23.71 9.991 C 23.236 10.035 23.279 9.506 23.279 9.506 L 23.322 6.462 C 23.236 6.198 23.451 6.065 23.451 6.065 L 23.926 6.065 C 24.573 6.109 24.401 5.669 24.401 5.669 C 24.401 5.449 23.84 5.36 23.84 5.36 C 23.322 5.448 23.365 5.139 23.365 5.139 L 23.365 4.434 C 23.452 3.949 23.15 3.949 23.15 3.949 C 23.085 3.924 23.032 3.916 22.99 3.92 Z M 22.38 4.034 C 22.325 4.039 22.265 4.079 22.2 4.17 L 22.2 10.785 C 22.2 10.785 22.373 11.358 22.631 11.314 C 22.631 11.314 22.675 11.182 22.675 10.961 L 22.761 4.654 C 22.761 4.654 22.619 4.014 22.38 4.034 Z M 15.426 4.081 C 15.038 4.081 14.995 4.831 14.995 4.831 L 14.952 11.093 C 14.995 11.402 15.081 11.358 15.081 11.358 C 15.469 11.093 15.426 10.652 15.426 10.652 C 15.426 10.652 15.469 4.699 15.469 4.611 C 15.469 4.522 15.426 4.081 15.426 4.081 Z M 15.673 11.128 C 15.598 11.125 15.459 11.16 15.34 11.402 C 15.34 11.402 15.254 11.711 15.556 11.623 L 17.67 11.623 L 18.231 11.755 C 18.231 11.755 18.835 11.623 18.231 11.27 L 16.203 11.27 C 16.203 11.27 15.814 11.181 15.728 11.137 C 15.728 11.137 15.708 11.129 15.673 11.128 Z M 22.04 11.206 C 21.93 11.208 21.812 11.226 21.812 11.226 C 21.467 11.446 19.439 11.27 19.439 11.27 C 19.31 11.27 19.137 11.49 19.137 11.49 C 19.05 11.887 19.698 11.711 19.698 11.711 L 22.114 11.711 C 22.502 11.799 22.502 11.623 22.502 11.623 C 22.502 11.491 22.2 11.226 22.2 11.226 C 22.167 11.209 22.106 11.205 22.04 11.206 Z M 18.868 11.701 C 18.857 11.702 18.845 11.705 18.835 11.711 C 18.835 11.711 18.446 11.71 18.49 12.24 C 18.49 12.24 18.533 12.637 18.921 12.637 C 18.921 12.637 19.267 12.593 19.267 12.152 C 19.267 12.152 19.039 11.687 18.868 11.701 Z M 12.45 20.267 C 12.45 20.267 12.45 20.752 12.406 21.237 C 12.363 21.502 12.493 22.737 12.406 23.354 C 12.406 23.354 12.406 23.574 11.975 23.398 C 11.975 23.398 9.343 23.442 9.3 23.354 C 9.3 23.354 8.566 23.398 8.523 23.001 C 8.523 23.001 8.609 20.134 8.566 20.046 C 8.566 20.046 8.523 18.503 8.566 18.326 C 8.566 18.326 8.609 16.871 8.566 16.694 C 8.566 16.694 8.566 16.342 8.523 16.209 C 8.523 16.209 8.523 15.989 8.868 16.121 C 8.868 16.121 8.998 16.342 9.645 16.253 C 9.645 16.253 10.12 16.342 10.594 16.253 C 10.594 16.253 11.63 16.165 11.889 16.253 C 11.889 16.253 12.32 16.165 12.406 16.65 L 12.406 17.929 L 12.536 18.37 L 12.665 18.282 L 12.708 17.973 L 12.708 16.606 C 12.708 16.606 12.795 16.342 13.14 16.297 C 13.14 16.297 13.657 16.253 13.744 16.297 C 13.83 16.342 14.952 16.386 15.254 16.342 C 15.556 16.297 15.599 16.562 16.548 16.077 C 16.548 16.077 16.807 16.077 16.807 16.253 C 16.807 16.253 16.721 18.017 16.807 18.37 C 16.807 18.37 16.807 21.634 16.721 21.854 L 16.764 22.913 C 16.764 22.913 16.807 23.354 16.074 23.398 C 16.074 23.398 16.505 23.442 13.701 23.354 C 13.701 23.354 13.269 23.31 12.751 23.574 C 12.751 23.574 12.665 23.53 12.665 23.266 C 12.665 23.266 12.751 22.295 12.665 21.325 L 12.622 20.267 Z M 16.98 23.133 C 16.98 23.133 17.239 23.619 17.325 23.663 C 17.325 23.663 17.541 23.927 17.498 23.442 L 17.541 17.4 C 17.541 17.4 17.498 17.18 17.541 16.871 L 17.282 16.43 C 17.282 16.43 17.023 16.209 17.023 16.562 L 17.023 22.957 Z M 8.394 23.398 C 8.394 23.398 8.696 23.707 9.17 23.707 L 11.932 23.751 C 11.932 23.751 12.234 23.795 12.234 23.927 C 12.234 23.927 12.191 24.192 11.802 24.104 L 8.437 24.06 L 8.049 24.104 C 8.049 24.104 7.79 24.06 8.178 23.574 Z M 7.79 16.474 C 7.79 16.474 7.531 16.915 7.574 17.047 L 7.574 24.016 C 7.574 24.016 7.531 24.501 7.919 24.368 C 7.919 24.368 11.5 24.28 11.759 24.368 C 11.759 24.368 12.104 24.412 11.975 24.589 C 11.975 24.589 11.975 24.721 11.759 24.677 C 11.759 24.677 10.076 24.853 8.523 24.765 C 8.523 24.765 7.488 24.809 7.444 24.721 C 7.444 24.721 7.272 24.677 7.272 24.104 C 7.272 24.104 7.272 23.53 7.229 23.442 C 7.229 23.442 7.272 23.133 6.754 23.089 C 6.754 23.089 6.021 23.222 6.021 22.781 C 6.021 22.781 6.107 22.472 6.84 22.516 C 6.84 22.516 7.358 22.604 7.229 22.163 L 7.272 19.076 C 7.272 19.076 7.358 18.547 6.97 18.503 L 6.538 18.503 C 6.538 18.503 5.934 18.503 5.978 18.15 C 5.978 18.15 6.193 17.797 6.797 17.841 C 6.797 17.841 7.229 17.929 7.272 17.4 C 7.272 17.4 7.272 16.342 7.488 16.297 C 7.444 16.297 7.962 16.342 7.79 16.474 M 8.135 16.43 C 8.135 16.43 8.264 16.43 8.264 16.694 L 8.221 23.001 C 8.221 23.001 8.264 23.398 7.919 23.707 C 7.919 23.707 7.747 23.927 7.747 23.574 L 7.833 17.135 C 7.833 17.135 7.833 16.65 8.135 16.43 M 12.967 23.839 C 12.967 23.839 13.312 23.574 13.485 23.618 C 13.485 23.618 15.34 23.751 15.901 23.662 C 16.462 23.574 16.117 23.618 16.117 23.618 C 16.117 23.618 16.591 23.618 16.764 23.442 C 16.764 23.442 16.893 23.398 16.98 23.53 L 17.282 23.883 C 17.282 23.883 17.282 24.104 16.937 24.059 C 16.937 24.059 13.614 24.059 13.485 24.104 C 13.528 24.104 12.924 24.192 12.967 23.839 M 13.183 24.412 C 13.183 24.412 13.442 24.28 13.614 24.324 C 13.787 24.368 16.16 24.28 16.16 24.28 C 16.16 24.28 17.196 24.368 17.368 24.192 L 17.627 24.104 C 17.627 24.104 17.713 23.971 17.713 23.795 L 17.713 23.045 L 17.756 22.825 L 17.756 17.047 C 17.756 17.047 17.843 16.606 17.584 16.342 C 17.584 16.342 17.584 16.165 17.67 16.209 C 17.756 16.253 17.713 16.209 17.713 16.209 C 17.713 16.209 18.058 16.121 18.145 16.253 C 18.145 16.253 18.317 16.739 18.145 17.047 C 18.145 17.047 18.102 17.665 18.404 17.665 C 18.404 17.665 18.533 17.797 18.749 17.709 C 18.749 17.709 19.267 17.753 19.267 17.929 C 19.267 17.929 19.267 18.326 18.921 18.238 L 18.447 18.282 C 18.447 18.282 18.102 18.37 18.145 18.723 C 18.188 19.12 18.145 21.987 18.145 21.987 C 18.145 21.987 18.145 22.34 18.663 22.296 C 18.663 22.296 19.31 22.251 19.31 22.472 C 19.31 22.472 19.482 22.869 19.008 22.913 C 19.008 22.913 18.145 22.869 18.231 23.133 C 18.231 23.133 18.188 23.707 18.145 23.839 C 18.145 23.839 18.231 24.324 18.145 24.412 C 18.145 24.412 18.102 24.677 17.541 24.633 C 17.541 24.633 14.046 24.633 13.485 24.677 C 13.442 24.765 13.097 24.721 13.183 24.412 M 12.579 24.016 C 12.579 24.016 12.924 24.06 12.924 24.412 C 12.924 24.765 12.924 24.942 12.751 24.986 C 12.536 25.03 12.32 24.942 12.277 24.677 C 12.19 24.412 12.277 24.104 12.579 24.016" fill="rgb(255,255,255)"></path><path d="M 6.174 6.153 L 6.002 6.55 C 6.002 6.55 5.57 8.579 5.311 8.976 C 5.311 8.976 5.268 9.417 4.923 9.064 C 4.923 9.064 4.103 6.506 4.06 6.418 L 3.801 6.241 C 3.801 6.241 3.628 6.021 3.93 5.977 L 4.707 5.977 C 4.707 5.977 4.966 6.197 4.621 6.418 C 4.621 6.418 4.664 6.771 5.095 8.05 C 5.095 8.05 5.225 8.535 5.354 8.182 L 5.786 6.682 L 5.656 6.241 C 5.656 6.241 5.527 6.021 5.7 6.021 C 5.7 6.021 6.131 5.977 6.174 6.153 M 7.339 6.506 L 7.339 8.711 L 7.296 8.887 C 7.296 8.887 7.08 9.152 7.253 9.196 C 7.253 9.196 7.08 9.328 8.547 9.328 C 8.547 9.328 9.108 9.417 8.979 8.667 C 8.979 8.667 8.936 8.402 8.72 8.799 C 8.72 8.799 8.677 9.152 7.9 9.02 C 7.9 9.02 7.727 8.888 7.727 8.711 L 7.727 7.785 C 7.727 7.785 7.727 7.564 8.073 7.564 C 8.073 7.564 8.461 7.829 8.504 7.697 C 8.504 7.697 8.633 7.344 8.504 7.167 C 8.504 7.167 8.331 7.167 8.288 7.212 C 8.288 7.212 8.159 7.476 7.814 7.3 C 7.814 7.3 7.641 6.947 7.771 6.682 C 7.771 6.682 7.727 6.153 8.073 6.197 C 8.073 6.197 8.504 6.285 8.504 6.418 C 8.504 6.418 8.59 6.682 8.72 6.374 L 8.634 6.065 C 8.634 6.065 8.59 5.933 8.461 5.977 C 8.461 5.977 7.771 6.065 7.684 5.977 L 7.124 6.021 C 7.124 6.021 7.037 6.241 7.296 6.33 C 7.296 6.374 7.339 6.418 7.339 6.506 M 19.722 6.153 C 19.679 5.977 20.067 5.977 20.067 5.977 L 20.283 6.021 C 20.413 6.021 20.585 6.065 20.585 6.065 C 20.715 6.285 20.499 6.418 20.499 6.418 L 20.413 6.682 L 20.413 8.887 C 20.456 8.976 20.628 9.196 20.628 9.196 C 20.628 9.373 20.413 9.328 20.413 9.328 L 19.808 9.328 C 19.636 9.328 19.679 9.108 19.679 9.108 C 19.895 9.02 19.938 8.623 19.938 8.623 L 19.938 6.55 Z M 16.961 8.094 L 16.918 8.755 L 17.09 9.064 C 17.22 9.24 17.004 9.373 17.004 9.373 L 16.357 9.284 C 16.228 9.24 16.357 9.02 16.357 9.02 C 16.529 8.932 16.529 8.667 16.529 8.667 L 16.529 6.55 C 16.529 6.462 16.357 6.241 16.357 6.241 C 16.228 6.241 16.271 6.021 16.271 6.021 C 16.314 5.933 16.659 5.977 16.659 5.977 L 17.522 5.977 C 18.342 6.241 18.212 6.859 18.212 6.859 C 18.255 7.476 17.652 7.697 17.652 7.697 L 17.608 8.05 L 18.212 9.02 C 18.299 9.108 18.299 9.196 18.299 9.196 C 18.212 9.417 17.867 9.196 17.867 9.196 L 17.134 8.005 C 17.047 7.917 16.961 8.094 16.961 8.094 M 16.961 6.418 L 16.961 7.52 C 17.349 7.829 17.565 7.388 17.565 7.388 C 18.083 6.903 17.565 6.418 17.479 6.285 C 17.392 6.153 17.004 6.285 17.004 6.285 Z M 10.662 18.767 C 10.662 18.767 10.705 20.31 10.662 20.53 L 10.662 20.883 C 10.662 20.883 10.748 21.104 10.877 21.192 C 10.877 21.192 10.964 21.501 10.748 21.457 C 10.748 21.457 10.23 21.413 10.101 21.457 C 10.101 21.457 9.799 21.457 10.101 21.104 C 10.101 21.104 10.187 20.972 10.187 20.575 C 10.187 20.575 10.187 18.81 10.23 18.722 C 10.23 18.722 10.273 18.502 10.144 18.414 L 9.885 18.414 L 9.583 18.722 C 9.583 18.722 9.497 19.031 9.367 18.722 L 9.367 18.546 L 9.54 18.061 L 9.669 18.061 C 9.669 18.061 9.842 18.193 10.014 18.237 L 10.964 18.237 L 11.309 18.061 C 11.309 18.061 11.438 18.061 11.395 18.281 C 11.395 18.281 11.438 18.766 11.179 18.81 C 11.179 18.81 11.007 18.766 10.921 18.502 C 10.921 18.458 10.662 18.281 10.662 18.766 M 15.149 18.193 C 15.149 18.193 14.372 18.105 14.372 18.987 C 14.372 18.987 14.286 19.56 15.149 19.957 C 15.149 19.957 15.796 20.266 15.753 20.663 C 15.753 20.663 15.667 21.368 14.976 21.016 C 14.976 21.016 14.631 20.839 14.674 20.663 C 14.674 20.663 14.588 20.442 14.458 20.486 C 14.458 20.486 14.329 20.53 14.372 21.236 C 14.372 21.236 14.372 21.501 14.674 21.236 L 14.847 21.28 C 14.847 21.28 15.407 21.721 15.882 21.192 C 15.882 21.192 16.4 20.707 16.012 20.134 C 16.012 20.134 15.753 19.693 15.278 19.516 C 15.278 19.516 14.847 19.296 14.718 18.943 C 14.718 18.943 14.847 18.325 15.408 18.634 C 15.408 18.634 15.623 18.899 15.753 18.943 C 15.753 18.943 15.925 18.943 15.882 18.546 L 15.839 18.237 C 15.839 18.237 15.796 18.017 15.494 18.237 C 15.494 18.193 15.235 18.325 15.149 18.193 M 12.689 17.752 C 12.819 17.84 12.862 18.061 12.862 18.061 C 13.293 19.163 13.639 20.795 13.639 20.795 C 13.725 21.016 13.941 21.148 13.941 21.148 C 14.286 21.28 13.941 21.368 13.941 21.368 C 13.811 21.413 13.337 21.368 13.337 21.368 C 13.078 21.324 13.207 21.236 13.207 21.236 C 13.293 21.148 13.207 20.707 13.207 20.707 C 13.207 20.53 12.991 20.266 12.991 20.266 C 12.905 20.222 12.776 20.398 12.776 20.398 C 12.776 20.398 12.56 20.486 12.517 20.398 C 12.474 20.31 12.344 20.222 12.344 20.222 C 12.085 20.222 11.999 20.839 11.999 20.839 C 12.128 21.368 11.999 21.28 11.999 21.28 C 11.87 21.457 11.481 21.324 11.481 21.324 C 11.309 21.28 11.438 21.148 11.438 21.148 C 11.654 21.104 11.74 20.839 11.74 20.839 C 11.826 20.707 12.517 17.972 12.517 17.972 C 12.474 17.928 12.517 17.664 12.689 17.752 M 12.344 19.163 C 12.344 19.251 12.171 19.869 12.171 19.869 L 12.301 20.089 L 12.732 20.089 C 12.819 20.089 12.862 20.001 12.862 19.869 C 12.862 19.781 12.646 19.119 12.646 19.119 L 12.56 18.987 Z" fill="rgb(0, 0, 0)"></path></g></svg>